<?xml version="1.0" encoding="utf-8"?> <!-- Generator: IcoMoon.io --> <!DOCTYPE svg PUBLIC "-//W3C//DTD SVG 1.1//EN" "http://www.w3.org/Graphics/SVG/1.1/DTD/svg11.dtd"> <svg width="496" height="240" viewBox="0 0 496 240" fill="#888888" xmlns="http://www.w3.org/2000/svg" xmlns:xlink="http://www.w3.org/1999/xlink"><path d="M 13.714,8.00l0.00,1.143 q0.00,0.473 -0.29,0.808t-0.754,0.335l-6.286,0.00 l 2.616,2.625q 0.339,0.321 0.339,0.804t-0.339,0.804l-0.67,0.679q-0.33,0.33 -0.804,0.33q-0.464,0.00 -0.813-0.33l-5.813-5.821q-0.33-0.33 -0.33-0.804q0.00-0.464 0.33-0.813l 5.813-5.804q 0.339-0.339 0.813-0.339q 0.464,0.00 0.804,0.339l 0.67,0.661q 0.339,0.339 0.339,0.813t-0.339,0.813l-2.616,2.616l 6.286,0.00 q 0.464,0.00 0.754,0.335 t 0.29,0.808zM 45.143,8.571q0.00,0.482 -0.33,0.813l-5.813,5.813q-0.348,0.33 -0.813,0.33q-0.455,0.00 -0.804-0.33l-0.67-0.67q-0.339-0.339 -0.339-0.813t 0.339-0.813l 2.616-2.616l-6.286,0.00 q-0.464,0.00 -0.754-0.335t-0.29-0.808l0.00-1.143 q0.00-0.473 0.29-0.808t 0.754-0.335l 6.286,0.00 l-2.616-2.625q-0.339-0.321 -0.339-0.804t 0.339-0.804l 0.67-0.67q 0.339-0.339 0.804-0.339q 0.473,0.00 0.813,0.339l 5.813,5.813q 0.33,0.313 0.33,0.804zM 78.384,8.67q0.00,0.455 -0.33,0.804l-0.67,0.67q-0.339,0.339 -0.813,0.339q-0.482,0.00 -0.804-0.339l-2.625-2.616l0.00,6.286 q0.00,0.464 -0.335,0.754t-0.808,0.29l-1.143,0.00 q-0.473,0.00 -0.808-0.29t-0.335-0.754l0.00-6.286 l-2.625,2.616q-0.321,0.339 -0.804,0.339t-0.804-0.339l-0.67-0.67q-0.339-0.339 -0.339-0.804q0.00-0.473 0.339-0.813l 5.813-5.813q 0.313-0.33 0.804-0.33q 0.482,0.00 0.813,0.33l 5.813,5.813 q 0.33,0.348 0.33,0.813zM 110.384,7.429q0.00,0.473 -0.33,0.804l-5.813,5.821q-0.348,0.33 -0.813,0.33q-0.473,0.00 -0.804-0.33l-5.813-5.821q-0.339-0.321 -0.339-0.804q0.00-0.473 0.339-0.813l 0.661-0.67q 0.348-0.33 0.813-0.33q 0.473,0.00 0.804,0.33l 2.625,2.625l0.00-6.286 q0.00-0.464 0.339-0.804t 0.804-0.339l 1.143,0.00 q 0.464,0.00 0.804,0.339t 0.339,0.804l0.00,6.286 l 2.625-2.625q 0.33-0.33 0.804-0.33q 0.464,0.00 0.813,0.33l 0.67,0.67q 0.33,0.348 0.33,0.813zM 131.429,13.143q0.00-0.232 -0.17-0.402t-0.402-0.17t-0.402,0.17t-0.17,0.402t 0.17,0.402t 0.402,0.17t 0.402-0.17t 0.17-0.402zM 137.179,9.393l-6.089,6.089q-0.33,0.33 -0.804,0.33q-0.464,0.00 -0.813-0.33l-0.946-0.964q-0.339-0.321 -0.339-0.804q0.00-0.473 0.339-0.813l 6.08-6.08q 0.348,0.875 1.022,1.549t 1.549,1.022zM 142.839,5.509q0.00,0.348 -0.205,0.946q-0.42,1.196 -1.469,1.942 t-2.308,0.746q-1.652,0.00 -2.826-1.174t-1.174-2.826t 1.174-2.826t 2.826-1.174q 0.518,0.00 1.085,0.147t 0.96,0.415q 0.143,0.098 0.143,0.25t-0.143,0.25l-2.616,1.509l0.00,2.00 l 1.723,0.955q 0.045-0.027 0.705-0.433t 1.21-0.723t 0.629-0.317q 0.134,0.00 0.21,0.089t 0.076,0.223zM 174.40,4.00L 161.60,4.00 C 160.72,4.00, 160.00,4.72, 160.00,5.60l0.00,4.80 c0.00,0.88, 0.72,1.60, 1.60,1.60l 12.80,0.00 c 0.88,0.00, 1.60-0.72, 1.60-1.60L 176.00,5.60 C 176.00,4.72, 175.28,4.00, 174.40,4.00z M 174.40,10.40L 161.60,10.40 L 161.60,5.60 l 12.80,0.00 L 174.40,10.40 zM 194.40,6.24c-0.972,0.00-1.76,0.788-1.76,1.76c0.00,0.972, 0.788,1.76, 1.76,1.76s 1.76-0.788, 1.76-1.76C 196.16,7.028, 195.372,6.24, 194.40,6.24z M 200.00,6.24 c-0.972,0.00-1.76,0.788-1.76,1.76c0.00,0.972, 0.788,1.76, 1.76,1.76s 1.759-0.788, 1.759-1.76C 201.759,7.028, 200.972,6.24, 200.00,6.24z M 205.60,6.24 c-0.972,0.00-1.76,0.788-1.76,1.76c0.00,0.972, 0.788,1.76, 1.76,1.76s 1.76-0.788, 1.76-1.76C 207.36,7.028, 206.572,6.24, 205.60,6.24zM 229.20,6.24c-0.972,0.00-1.76,0.788-1.76,1.76s 0.788,1.76, 1.76,1.76s 1.76-0.788, 1.76-1.76S 230.172,6.24, 229.20,6.24z M 234.80,6.24 c-0.972,0.00-1.76,0.788-1.76,1.76s 0.788,1.76, 1.76,1.76s 1.76-0.788, 1.76-1.76S 235.772,6.24, 234.80,6.24zM 264.00,6.24c-0.972,0.00-1.76,0.788-1.76,1.76s 0.788,1.76, 1.76,1.76s 1.76-0.788, 1.76-1.76S 264.972,6.24, 264.00,6.24zM 303.00,7.00c-0.553,0.00-1.00,0.448-1.00,1.00l0.00,6.00 L 290.00,14.00 L 290.00,8.00 c0.00-0.552-0.447-1.00-1.00-1.00 S 288.00,7.448, 288.00,8.00l0.00,7.00 c0.00,0.552, 0.447,1.00, 1.00,1.00l 14.00,0.00 c 0.553,0.00, 1.00-0.448, 1.00-1.00L 304.00,8.00 C 304.00,7.448, 303.553,7.00, 303.00,7.00zM 297.00,7.00L 297.00,0.878 C 297.00,0.393, 296.553,0.00, 296.00,0.00s-1.00,0.393-1.00,0.878L 295.00,7.00 l-3.00,0.00 l 4.00,4.00 l 4.00-4.00L 297.00,7.00 zM 335.56,15.56c-0.587,0.587-1.538,0.587-2.125,0.00l-2.652-2.652 c-1.09,0.699-2.379,1.116-3.771,1.116C 323.14,14.024, 320.00,10.885, 320.00,7.012S 323.14,0.00, 327.012,0.00 c 3.873,0.00, 7.012,3.139, 7.012,7.012c0.00,1.392-0.417,2.68-1.116,3.771l 2.652,2.651 C 336.147,14.022, 336.147,14.973, 335.56,15.56z M 327.012,2.003c-2.766,0.00-5.009,2.243-5.009,5.009 c0.00,2.766, 2.243,5.009, 5.009,5.009c 2.766,0.00, 5.009-2.242, 5.009-5.009C 332.021,4.246, 329.778,2.003, 327.012,2.003z M 328.014,10.017l-2.003,0.00 l0.00-2.003 l-2.003,0.00 l0.00-2.003 l 2.003,0.00 l0.00-2.003 l 2.003,0.00 l0.00,2.003 l 2.003,0.00 l0.00,2.003 l-2.003,0.00 L 328.014,10.017 zM 367.56,13.435l-2.652-2.651c 0.699-1.091, 1.116-2.38, 1.116-3.771 C 366.024,3.139, 362.885,0.00, 359.012,0.00C 355.14,0.00, 352.00,3.139, 352.00,7.012s 3.14,7.012, 7.012,7.012 c 1.392,0.00, 2.68-0.417, 3.771-1.116l 2.652,2.652c 0.587,0.587, 1.538,0.587, 2.125,0.00 C 368.147,14.973, 368.147,14.022, 367.56,13.435z M 359.012,12.021c-2.766,0.00-5.009-2.242-5.009-5.009 c0.00-2.766, 2.243-5.009, 5.009-5.009c 2.766,0.00, 5.009,2.243, 5.009,5.009 C 364.021,9.778, 361.778,12.021, 359.012,12.021z M 356.007,8.014l 6.01,0.00 l0.00-2.003 L 356.007,6.01 L 356.007,8.014 zM 392.00,16.00C 387.582,16.00, 384.00,12.418, 384.00,8.00S 387.582,0.00, 392.00,0.00 c 4.418,0.00, 8.00,3.582, 8.00,8.00S 396.418,16.00, 392.00,16.00z M 392.00,2.00C 388.687,2.00, 386.00,4.687, 386.00,8.00s 2.687,6.00, 6.00,6.00 c 3.314,0.00, 6.00-2.687, 6.00-6.00S 395.314,2.00, 392.00,2.00z M 393.00,12.00l-2.00,0.00 l0.00-3.00 l-3.00,0.00 l0.00-2.00 l 3.00,0.00 l0.00-3.00 l 2.00,0.00 l0.00,3.00 l 3.00,0.00 l0.00,2.00 l-3.00,0.00 L 393.00,12.00 zM 424.00,0.00C 419.582,0.00, 416.00,3.582, 416.00,8.00c0.00,4.418, 3.582,8.00, 8.00,8.00 c 4.418,0.00, 8.00-3.582, 8.00-8.00C 432.00,3.582, 428.418,0.00, 424.00,0.00z M 424.00,14.00c-3.313,0.00-6.00-2.687-6.00-6.00S 420.687,2.00, 424.00,2.00 c 3.314,0.00, 6.00,2.687, 6.00,6.00S 427.314,14.00, 424.00,14.00z M 420.00,9.00l 8.00,0.00 l0.00-2.00 L 420.00,7.00 L 420.00,9.00 zM 452.00,7.00L 460.00,7.00L 460.00,9.00L 452.00,9.00zM 452.00,4.00L 460.00,4.00L 460.00,6.00L 452.00,6.00zM 463.00,0.00L 449.00,0.00 C 448.447,0.00, 448.00,0.447, 448.00,1.00l0.00,11.00 c0.00,0.553, 0.447,1.00, 1.00,1.00l 2.00,0.00 l0.00,3.00 l 4.50-3.00l 7.50,0.00 c 0.553,0.00, 1.00-0.447, 1.00-1.00L 464.00,1.00 C 464.00,0.447, 463.553,0.00, 463.00,0.00z M 462.00,11.00L 455.50,11.00 l-2.50,1.50l0.00-1.50 L 450.00,11.00 L 450.00,2.00 l 12.00,0.00 L 462.00,11.00 zM 494.00,4.00L 494.00,2.00 L 480.00,2.00 l0.00,10.00 l 2.00,0.00 l0.00,2.00 l 14.00,0.00 L 496.00,4.00 L 494.00,4.00 z M 482.00,10.667L 481.333,10.667 L 481.333,3.333 l 11.333,0.00 l0.00,0.667 L 482.00,4.00 L 482.00,10.667 z M 494.667,12.667L 483.333,12.667 L 483.333,5.333 l 11.333,0.00 L 494.667,12.667 zM 8.00,33.50C 4.41,33.50, 1.50,36.41, 1.50,40.00s 2.91,6.50, 6.50,6.50s 6.50-2.91, 6.50-6.50S 11.59,33.50, 8.00,33.50z M 8.00,45.50C 4.963,45.50, 2.50,43.037, 2.50,40.00S 4.963,34.50, 8.00,34.50 s 5.50,2.462, 5.50,5.50S 11.037,45.50, 8.00,45.50z M 7.414,38.354c-0.294,0.229-0.567,0.385-0.818,0.467l0.00,0.871 c 0.476-0.157, 0.89-0.40, 1.242-0.728 l0.00,3.555 l 1.024,0.00 l0.00-5.00 l-0.843,0.00 C 7.91,37.827, 7.708,38.125, 7.414,38.354zM 40.00,33.50C 36.41,33.50, 33.50,36.41, 33.50,40.00s 2.91,6.50, 6.50,6.50s 6.50-2.91, 6.50-6.50S 43.59,33.50, 40.00,33.50z M 40.00,45.50C 36.963,45.50, 34.50,43.037, 34.50,40.00S 36.963,34.50, 40.00,34.50 s 5.50,2.462, 5.50,5.50S 43.037,45.50, 40.00,45.50z M 40.782,40.889c 0.303-0.278, 0.513-0.491, 0.63-0.639c 0.175-0.224, 0.303-0.438, 0.385-0.641 c 0.081-0.204, 0.121-0.419, 0.121-0.644c0.00-0.397-0.141-0.729-0.424-0.995c-0.282-0.267-0.671-0.40-1.165-0.40 c-0.451,0.00-0.827,0.115-1.128,0.345s-0.48,0.609-0.536,1.137l 0.957,0.096c 0.018-0.28, 0.086-0.48, 0.205-0.601 c 0.118-0.12, 0.278-0.18, 0.478-0.18c 0.203,0.00, 0.361,0.058, 0.476,0.172c 0.115,0.115, 0.173,0.28, 0.173,0.494 c0.00,0.194-0.067,0.39-0.198,0.588c-0.098,0.143-0.363,0.417-0.796,0.82c-0.538,0.499-0.898,0.899-1.08,1.202 c-0.182,0.302-0.292,0.621-0.328,0.959l 3.367,0.00 l0.00-0.89 l-1.909,0.00 c 0.051-0.086, 0.116-0.175, 0.197-0.267 C 40.286,41.351, 40.478,41.167, 40.782,40.889zM 72.00,33.50C 68.41,33.50, 65.50,36.41, 65.50,40.00s 2.91,6.50, 6.50,6.50s 6.50-2.91, 6.50-6.50S 75.59,33.50, 72.00,33.50z M 72.00,45.50C 68.963,45.50, 66.50,43.037, 66.50,40.00S 68.963,34.50, 72.00,34.50 s 5.50,2.462, 5.50,5.50S 75.037,45.50, 72.00,45.50z M 72.624,39.609c 0.481-0.263, 0.722-0.614, 0.722-1.054c0.00-0.31-0.117-0.589-0.352-0.835 c-0.285-0.301-0.665-0.452-1.137-0.452c-0.277,0.00-0.526,0.052-0.749,0.155s-0.396,0.246-0.521,0.427 c-0.124,0.181-0.217,0.423-0.28,0.727l 0.886,0.151c 0.025-0.22, 0.097-0.386, 0.213-0.50c 0.117-0.115, 0.258-0.172, 0.422-0.172 c 0.167,0.00, 0.301,0.051, 0.402,0.15c 0.101,0.101, 0.151,0.235, 0.151,0.405c0.00,0.199-0.069,0.358-0.206,0.478 c-0.137,0.12-0.337,0.176-0.598,0.17l-0.106,0.782c 0.172-0.048, 0.319-0.072, 0.443-0.072c 0.187,0.00, 0.345,0.07, 0.476,0.211 c 0.131,0.141, 0.196,0.333, 0.196,0.574c0.00,0.255-0.068,0.457-0.203,0.607c-0.136,0.15-0.303,0.225-0.502,0.225 c-0.185,0.00-0.343-0.063-0.472-0.188c-0.131-0.125-0.21-0.306-0.239-0.543l-0.929,0.113c 0.048,0.421, 0.221,0.762, 0.52,1.024 c 0.299,0.261, 0.675,0.391, 1.129,0.391c 0.478,0.00, 0.879-0.154, 1.20-0.465c 0.322-0.309, 0.482-0.684, 0.482-1.123 c0.00-0.302-0.086-0.561-0.258-0.775C 73.139,39.809, 72.911,39.671, 72.624,39.609zM 104.00,33.50C 100.41,33.50, 97.50,36.41, 97.50,40.00s 2.91,6.50, 6.50,6.50s 6.50-2.91, 6.50-6.50S 107.59,33.50, 104.00,33.50z M 104.00,45.50C 100.963,45.50, 98.50,43.037, 98.50,40.00S 100.963,34.50, 104.00,34.50 s 5.50,2.462, 5.50,5.50S 107.037,45.50, 104.00,45.50z M 105.088,37.668l-0.806,0.00 l-2.177,3.187l0.00,0.837 l 2.054,0.00 L 104.159,42.70 l 0.929,0.00 l0.00-1.008 l 0.622,0.00 l0.00-0.84 l-0.622,0.00 L 105.088,37.668 z M 104.159,40.852l-1.155,0.00 l 1.155-1.717L 104.159,40.852 zM 136.00,33.50C 132.41,33.50, 129.50,36.41, 129.50,40.00s 2.91,6.50, 6.50,6.50s 6.50-2.91, 6.50-6.50S 139.59,33.50, 136.00,33.50z M 136.00,45.50C 132.963,45.50, 130.50,43.037, 130.50,40.00S 132.963,34.50, 136.00,34.50 s 5.50,2.462, 5.50,5.50S 139.037,45.50, 136.00,45.50z M 136.13,38.944c-0.224,0.00-0.443,0.053-0.656,0.161l 0.152-0.852l 1.811,0.00 l0.00-0.898 l-2.539,0.00 l-0.492,2.61 l 0.778,0.114c 0.219-0.245, 0.466-0.367, 0.742-0.367c 0.221,0.00, 0.401,0.077, 0.538,0.231s 0.207,0.385, 0.207,0.693 c0.00,0.329-0.07,0.574-0.208,0.738c-0.139,0.164-0.309,0.244-0.51,0.244c-0.175,0.00-0.331-0.063-0.465-0.19 c-0.135-0.126-0.215-0.297-0.243-0.513l-0.957,0.099c 0.057,0.419, 0.231,0.753, 0.523,1.002c 0.292,0.248, 0.669,0.372, 1.132,0.372 c 0.579,0.00, 1.031-0.221, 1.357-0.663c 0.239-0.324, 0.358-0.692, 0.358-1.105c0.00-0.494-0.148-0.897-0.445-1.208 C 136.917,39.099, 136.556,38.944, 136.13,38.944zM 168.00,33.50C 164.41,33.50, 161.50,36.41, 161.50,40.00s 2.91,6.50, 6.50,6.50s 6.50-2.91, 6.50-6.50S 171.59,33.50, 168.00,33.50z M 168.00,45.50C 164.963,45.50, 162.50,43.037, 162.50,40.00S 164.963,34.50, 168.00,34.50 s 5.50,2.462, 5.50,5.50S 171.037,45.50, 168.00,45.50z M 168.26,39.343c-0.355,0.00-0.652,0.141-0.892,0.424c 0.036-0.576, 0.124-0.954, 0.265-1.135 s 0.311-0.273, 0.514-0.273c 0.152,0.00, 0.277,0.045, 0.372,0.137s 0.155,0.232, 0.177,0.422l 0.929-0.102 c-0.069-0.405-0.228-0.714-0.477-0.926c-0.249-0.212-0.565-0.319-0.945-0.319c-0.542,0.00-0.984,0.203-1.323,0.609 c-0.34,0.406-0.509,1.067-0.509,1.986c0.00,0.895, 0.163,1.54, 0.489,1.933c 0.326,0.393, 0.742,0.59, 1.248,0.59 c 0.472,0.00, 0.859-0.155, 1.159-0.466c 0.301-0.31, 0.452-0.723, 0.452-1.236c0.00-0.484-0.143-0.878-0.429-1.184 C 169.005,39.495, 168.661,39.343, 168.26,39.343z M 168.601,41.68c-0.118,0.139-0.267,0.208-0.444,0.208c-0.184,0.00-0.348-0.085-0.491-0.255 s-0.215-0.411-0.215-0.725c0.00-0.283, 0.064-0.497, 0.191-0.642s 0.283-0.218, 0.468-0.218c 0.191,0.00, 0.35,0.076, 0.478,0.228 s 0.192,0.391, 0.192,0.718C 168.778,41.313, 168.719,41.541, 168.601,41.68zM 200.00,33.50C 196.41,33.50, 193.50,36.41, 193.50,40.00s 2.91,6.50, 6.50,6.50s 6.50-2.91, 6.50-6.50S 203.59,33.50, 200.00,33.50z M 200.00,45.50C 196.963,45.50, 194.50,43.037, 194.50,40.00S 196.963,34.50, 200.00,34.50 s 5.50,2.462, 5.50,5.50S 203.037,45.50, 200.00,45.50z M 198.372,38.646l 2.186,0.00 c-0.451,0.568-0.811,1.212-1.081,1.933 c-0.27,0.721-0.413,1.428-0.428,2.122l 0.926,0.00 c-0.003-0.443, 0.07-0.945, 0.217-1.506c 0.146-0.562, 0.36-1.093, 0.64-1.592 c 0.28-0.499, 0.555-0.882, 0.827-1.149l0.00-0.699 l-3.285,0.00 L 198.372,38.646 zM 232.00,33.50C 228.41,33.50, 225.50,36.41, 225.50,40.00s 2.91,6.50, 6.50,6.50s 6.50-2.91, 6.50-6.50S 235.59,33.50, 232.00,33.50z M 232.00,45.50C 228.963,45.50, 226.50,43.037, 226.50,40.00S 228.963,34.50, 232.00,34.50 s 5.50,2.462, 5.50,5.50S 235.037,45.50, 232.00,45.50z M 232.603,39.697c 0.218-0.096, 0.388-0.234, 0.509-0.415s 0.181-0.388, 0.181-0.621 c0.00-0.374-0.132-0.682-0.395-0.926c-0.264-0.243-0.633-0.365-1.109-0.365c-0.481,0.00-0.852,0.122-1.113,0.365 c-0.261,0.244-0.392,0.552-0.392,0.926c0.00,0.219, 0.057,0.42, 0.169,0.604c 0.114,0.183, 0.293,0.328, 0.542,0.432 c-0.289,0.123-0.50,0.298-0.635,0.525c-0.134,0.227-0.201,0.476-0.201,0.748c0.00,0.493, 0.178,0.881, 0.536,1.164 c 0.302,0.239, 0.682,0.359, 1.137,0.359c 0.489,0.00, 0.882-0.145, 1.177-0.435c 0.295-0.289, 0.443-0.666, 0.443-1.129 c0.00-0.281-0.072-0.528-0.217-0.743S 232.881,39.809, 232.603,39.697z M 231.359,38.295c 0.11-0.11, 0.256-0.164, 0.441-0.164 c 0.177,0.00, 0.321,0.054, 0.428,0.163c 0.108,0.108, 0.162,0.253, 0.162,0.432c0.00,0.192-0.054,0.342-0.164,0.45 c-0.11,0.108-0.255,0.163-0.437,0.163c-0.18,0.00-0.324-0.053-0.432-0.161c-0.108-0.107-0.162-0.257-0.162-0.448 C 231.196,38.549, 231.25,38.404, 231.359,38.295z M 232.309,41.507c-0.131,0.142-0.294,0.214-0.492,0.214 c-0.203,0.00-0.372-0.073-0.508-0.222c-0.136-0.148-0.203-0.355-0.203-0.62c0.00-0.19, 0.058-0.365, 0.173-0.528 c 0.115-0.162, 0.29-0.243, 0.524-0.243c 0.203,0.00, 0.37,0.071, 0.503,0.214c 0.132,0.143, 0.198,0.332, 0.198,0.567 C 232.504,41.157, 232.439,41.364, 232.309,41.507zM 264.00,33.50C 260.41,33.50, 257.50,36.41, 257.50,40.00s 2.91,6.50, 6.50,6.50s 6.50-2.91, 6.50-6.50S 267.59,33.50, 264.00,33.50z M 264.00,45.50C 260.963,45.50, 258.50,43.037, 258.50,40.00S 260.963,34.50, 264.00,34.50 s 5.50,2.462, 5.50,5.50S 267.037,45.50, 264.00,45.50z M 263.804,37.668c-0.468,0.00-0.852,0.155-1.155,0.467c-0.302,0.311-0.453,0.721-0.453,1.229 c0.00,0.488, 0.143,0.884, 0.428,1.188c 0.286,0.304, 0.626,0.457, 1.02,0.457c 0.362,0.00, 0.664-0.141, 0.906-0.421 c-0.038,0.575-0.128,0.953-0.266,1.135c-0.139,0.182-0.307,0.274-0.505,0.274c-0.157,0.00-0.283-0.046-0.379-0.137 s-0.155-0.232-0.177-0.421l-0.929,0.102c 0.069,0.416, 0.223,0.73, 0.465,0.939c 0.241,0.209, 0.558,0.315, 0.95,0.315 c 0.545,0.00, 0.987-0.203, 1.326-0.61c 0.34-0.406, 0.509-1.067, 0.509-1.984c0.00-0.901-0.163-1.548-0.489-1.942 C 264.73,37.865, 264.313,37.668, 263.804,37.668z M 264.277,40.086c-0.126,0.146-0.281,0.219-0.466,0.219 c-0.191,0.00-0.35-0.075-0.478-0.228s-0.191-0.39-0.191-0.713c0.00-0.319, 0.059-0.549, 0.175-0.689c 0.117-0.14, 0.265-0.21, 0.443-0.21 c 0.186,0.00, 0.35,0.086, 0.493,0.257c 0.142,0.171, 0.213,0.411, 0.213,0.722C 264.467,39.726, 264.405,39.941, 264.277,40.086zM 296.00,33.50C 292.41,33.50, 289.50,36.41, 289.50,40.00s 2.91,6.50, 6.50,6.50s 6.50-2.91, 6.50-6.50S 299.59,33.50, 296.00,33.50z M 296.00,45.50C 292.963,45.50, 290.50,43.037, 290.50,40.00S 292.963,34.50, 296.00,34.50 s 5.50,2.462, 5.50,5.50S 299.037,45.50, 296.00,45.50z M 295.997,37.369c-0.486,0.00-0.865,0.171-1.136,0.513c-0.329,0.415-0.492,1.094-0.492,2.037 c0.00,0.962, 0.149,1.63, 0.448,2.005s 0.693,0.562, 1.181,0.562c 0.485,0.00, 0.865-0.171, 1.135-0.512c 0.329-0.414, 0.493-1.096, 0.493-2.044 c0.00-0.95-0.163-1.631-0.489-2.041C 296.863,37.542, 296.482,37.369, 295.997,37.369z M 296.523,41.18c-0.051,0.192-0.121,0.324-0.213,0.399 c-0.092,0.074-0.197,0.111-0.313,0.111c-0.117,0.00-0.221-0.036-0.311-0.11s-0.166-0.219-0.225-0.439s-0.089-0.624-0.089-1.212 s 0.033-1.006, 0.10-1.254c 0.05-0.192, 0.121-0.324, 0.213-0.398c 0.091-0.074, 0.196-0.111, 0.313-0.111 c 0.116,0.00, 0.22,0.037, 0.31,0.111c 0.09,0.074, 0.165,0.221, 0.225,0.441s 0.09,0.624, 0.09,1.212S 296.589,40.934, 296.523,41.18zM 328.00,33.50C 324.41,33.50, 321.50,36.41, 321.50,40.00s 2.91,6.50, 6.50,6.50s 6.50-2.91, 6.50-6.50S 331.59,33.50, 328.00,33.50z M 328.879,43.268l-1.234,0.00 l0.00-4.652 c-0.451,0.42-0.982,0.732-1.594,0.933l0.00-1.117 c 0.322-0.105, 0.672-0.306, 1.05-0.601 c 0.378-0.295, 0.636-0.639, 0.777-1.032l 1.002,0.00 L 328.879,43.268 zM 360.00,33.50C 356.41,33.50, 353.50,36.41, 353.50,40.00s 2.91,6.50, 6.50,6.50s 6.50-2.91, 6.50-6.50S 363.59,33.50, 360.00,33.50z M 361.498,42.678c-0.413,0.399-0.927,0.597-1.543,0.597c-0.583,0.00-1.067-0.168-1.45-0.502c-0.385-0.335-0.607-0.772-0.668-1.313 l 1.196-0.144c 0.038,0.303, 0.141,0.535, 0.308,0.697c 0.167,0.161, 0.369,0.241, 0.607,0.241c 0.255,0.00, 0.469-0.097, 0.644-0.291 c 0.174-0.194, 0.261-0.455, 0.261-0.783c0.00-0.31-0.084-0.557-0.251-0.74c-0.168-0.182-0.371-0.273-0.612-0.273 c-0.159,0.00-0.347,0.031-0.568,0.092l 0.136-0.999c 0.334,0.009, 0.589-0.064, 0.764-0.217c 0.175-0.153, 0.263-0.357, 0.263-0.612 c0.00-0.216-0.064-0.389-0.193-0.517c-0.129-0.129-0.299-0.193-0.512-0.193c-0.21,0.00-0.39,0.073-0.538,0.219 c-0.149,0.146-0.239,0.36-0.272,0.64l-1.141-0.193c 0.079-0.391, 0.199-0.704, 0.358-0.938s 0.383-0.417, 0.668-0.551 s 0.606-0.201, 0.961-0.201c 0.607,0.00, 1.093,0.194, 1.459,0.581c 0.302,0.317, 0.453,0.674, 0.453,1.073c0.00,0.566-0.309,1.017-0.929,1.354 c 0.369,0.079, 0.665,0.257, 0.886,0.531c 0.222,0.276, 0.332,0.608, 0.332,0.997C 362.117,41.799, 361.911,42.28, 361.498,42.678zM 392.00,33.50C 388.41,33.50, 385.50,36.41, 385.50,40.00s 2.91,6.50, 6.50,6.50s 6.50-2.91, 6.50-6.50S 395.59,33.50, 392.00,33.50z M 393.773,42.34c-0.419,0.569-1.002,0.853-1.746,0.853c-0.595,0.00-1.08-0.16-1.456-0.479c-0.375-0.321-0.60-0.751-0.673-1.291 l 1.234-0.128c 0.035,0.28, 0.139,0.50, 0.311,0.662c 0.172,0.163, 0.371,0.244, 0.596,0.244c 0.258,0.00, 0.474-0.104, 0.653-0.314 c 0.177-0.209, 0.267-0.524, 0.267-0.947c0.00-0.395-0.089-0.692-0.266-0.889c-0.177-0.198-0.409-0.296-0.694-0.296 c-0.355,0.00-0.674,0.156-0.956,0.469l-0.999-0.144l 0.633-3.356l 3.265,0.00 l0.00,1.156 l-2.329,0.00 l-0.199,1.096c 0.277-0.137, 0.558-0.205, 0.847-0.205 c 0.549,0.00, 1.015,0.20, 1.397,0.598c 0.382,0.399, 0.573,0.916, 0.573,1.552C 394.235,41.45, 394.081,41.924, 393.773,42.34zM 424.031,40.018c-0.238,0.00-0.439,0.093-0.603,0.279 c-0.165,0.186-0.246,0.461-0.246,0.824c0.00,0.402, 0.092,0.711, 0.278,0.929c 0.184,0.218, 0.396,0.328, 0.633,0.328 c 0.229,0.00, 0.419-0.09, 0.572-0.269s 0.229-0.471, 0.229-0.878c0.00-0.419-0.082-0.726-0.246-0.92S 424.277,40.018, 424.031,40.018z M 424.00,33.50 C 420.41,33.50, 417.50,36.41, 417.50,40.00s 2.91,6.50, 6.50,6.50s 6.50-2.91, 6.50-6.50S 427.59,33.50, 424.00,33.50z M 425.524,42.803c-0.387,0.399-0.884,0.597-1.49,0.597 c-0.651,0.00-1.186-0.253-1.605-0.758c-0.419-0.505-0.629-1.333-0.629-2.485c0.00-1.181, 0.219-2.031, 0.656-2.553 c 0.436-0.521, 1.004-0.782, 1.702-0.782c 0.489,0.00, 0.895,0.138, 1.216,0.412c 0.322,0.276, 0.526,0.674, 0.614,1.198l-1.196,0.132 c-0.029-0.245-0.106-0.426-0.229-0.543c-0.123-0.117-0.283-0.175-0.48-0.175c-0.262,0.00-0.483,0.117-0.663,0.35 c-0.18,0.234-0.294,0.72-0.342,1.46c 0.307-0.363, 0.691-0.544, 1.149-0.544c 0.516,0.00, 0.958,0.196, 1.326,0.588 s 0.552,0.898, 0.552,1.519C 426.104,41.878, 425.911,42.406, 425.524,42.803zM 456.107,40.331c-0.302,0.00-0.526,0.104-0.674,0.315 c-0.148,0.209-0.222,0.436-0.222,0.681c0.00,0.343, 0.087,0.61, 0.261,0.802s 0.392,0.288, 0.652,0.288c 0.255,0.00, 0.466-0.093, 0.633-0.278 s 0.251-0.451, 0.251-0.799c0.00-0.304-0.085-0.548-0.255-0.733C 456.583,40.423, 456.367,40.331, 456.107,40.331z M 456.089,39.354 c 0.234,0.00, 0.42-0.07, 0.56-0.209c 0.14-0.14, 0.21-0.333, 0.21-0.579c0.00-0.232-0.07-0.417-0.208-0.557 c-0.139-0.14-0.322-0.209-0.549-0.209c-0.236,0.00-0.424,0.07-0.565,0.211c-0.14,0.141-0.21,0.328-0.21,0.559 c0.00,0.246, 0.07,0.439, 0.207,0.577C 455.675,39.285, 455.859,39.354, 456.089,39.354z M 456.00,33.50C 452.41,33.50, 449.50,36.41, 449.50,40.00s 2.91,6.50, 6.50,6.50 s 6.50-2.91, 6.50-6.50S 459.59,33.50, 456.00,33.50z M 457.658,42.85c-0.38,0.373-0.884,0.559-1.513,0.559c-0.586,0.00-1.073-0.154-1.463-0.463 c-0.46-0.364-0.69-0.864-0.69-1.498c0.00-0.349, 0.086-0.67, 0.26-0.962c 0.173-0.292, 0.446-0.517, 0.819-0.676 c-0.32-0.135-0.552-0.32-0.697-0.555c-0.145-0.235-0.218-0.493-0.218-0.774c0.00-0.479, 0.168-0.875, 0.503-1.188 c 0.336-0.313, 0.813-0.469, 1.431-0.469c 0.613,0.00, 1.088,0.157, 1.426,0.469c 0.339,0.313, 0.508,0.709, 0.508,1.188 c0.00,0.298-0.077,0.564-0.233,0.796c-0.156,0.232-0.374,0.41-0.655,0.532c 0.356,0.144, 0.627,0.354, 0.813,0.63 c 0.185,0.276, 0.279,0.595, 0.279,0.956C 458.226,41.992, 458.037,42.476, 457.658,42.85zM 487.965,37.721c-0.23,0.00-0.42,0.09-0.572,0.27 c-0.151,0.18-0.227,0.474-0.227,0.884c0.00,0.415, 0.083,0.72, 0.247,0.914c 0.165,0.195, 0.37,0.292, 0.617,0.292 c 0.238,0.00, 0.439-0.094, 0.602-0.281s 0.244-0.462, 0.244-0.825c0.00-0.398-0.092-0.706-0.276-0.925S 488.206,37.721, 487.965,37.721z M 488.00,33.50 C 484.41,33.50, 481.50,36.41, 481.50,40.00s 2.91,6.50, 6.50,6.50s 6.50-2.91, 6.50-6.50S 491.59,33.50, 488.00,33.50z M 489.607,42.502c-0.435,0.522-1.003,0.782-1.702,0.782 c-0.503,0.00-0.909-0.135-1.22-0.404c-0.31-0.27-0.509-0.671-0.597-1.206l 1.196-0.133c 0.029,0.244, 0.105,0.425, 0.228,0.542 c 0.122,0.117, 0.284,0.176, 0.486,0.176c 0.254,0.00, 0.47-0.117, 0.648-0.352c 0.177-0.235, 0.291-0.722, 0.342-1.462 c-0.311,0.36-0.70,0.54-1.166,0.54c-0.507,0.00-0.946-0.196-1.313-0.586c-0.368-0.391-0.552-0.899-0.552-1.526 c0.00-0.652, 0.195-1.179, 0.583-1.578c 0.389-0.40, 0.883-0.599, 1.484-0.599c 0.653,0.00, 1.19,0.253, 1.609,0.758 c 0.419,0.505, 0.628,1.337, 0.628,2.495C 490.261,41.13, 490.043,41.979, 489.607,42.502zM 8.369,69.739c-0.117-0.095-0.25-0.143-0.401-0.143s-0.284,0.048-0.403,0.143 c-0.118,0.096-0.209,0.266-0.275,0.512c-0.086,0.32-0.128,0.857-0.128,1.613s 0.038,1.276, 0.115,1.558s 0.173,0.47, 0.289,0.565 c 0.117,0.094, 0.25,0.14, 0.401,0.14s 0.284-0.048, 0.403-0.142s 0.209-0.266, 0.275-0.512c 0.085-0.317, 0.128-0.853, 0.128-1.609 s-0.038-1.276-0.115-1.558C 8.582,70.024, 8.486,69.835, 8.369,69.739z M 8.00,65.50C 4.41,65.50, 1.50,68.41, 1.50,72.00s 2.91,6.50, 6.50,6.50s 6.50-2.91, 6.50-6.50 S 11.59,65.50, 8.00,65.50z M 9.429,74.492c-0.349,0.44-0.836,0.659-1.46,0.659c-0.627,0.00-1.133-0.24-1.518-0.723s-0.576-1.341-0.576-2.577 c0.00-1.213, 0.211-2.086, 0.633-2.619c 0.349-0.44, 0.836-0.659, 1.46-0.659s 1.113,0.223, 1.465,0.668 c 0.419,0.527, 0.629,1.401, 0.629,2.623C 10.063,73.083, 9.851,73.959, 9.429,74.492zM 40.00,65.50C 36.41,65.50, 33.50,68.41, 33.50,72.00s 2.91,6.50, 6.50,6.50s 6.50-2.91, 6.50-6.50S 43.59,65.50, 40.00,65.50z M 40.00,77.50C 36.963,77.50, 34.50,75.037, 34.50,72.00S 36.963,66.50, 40.00,66.50 s 5.50,2.462, 5.50,5.50S 43.037,77.50, 40.00,77.50z M 39.296,70.087c 0.209-0.111, 0.314-0.248, 0.314-0.414c0.00-0.104-0.035-0.192-0.107-0.261 c-0.072-0.069-0.163-0.103-0.273-0.103c-0.276,0.00-0.655,0.16-1.139,0.479c-0.573,0.375-1.028,0.831-1.365,1.369 c-0.338,0.537-0.507,1.069-0.507,1.593c0.00,0.248, 0.047,0.494, 0.141,0.74c 0.093,0.245, 0.22,0.453, 0.38,0.625 c 0.336,0.369, 0.737,0.554, 1.204,0.554c 0.489,0.00, 0.888-0.169, 1.196-0.505c 0.127-0.138, 0.227-0.302, 0.301-0.492 c 0.074-0.191, 0.112-0.379, 0.112-0.567c0.00-0.397-0.11-0.736-0.33-1.018s-0.509-0.447-0.866-0.496l-0.132-0.008l-0.099-0.017 c-0.165-0.022-0.247-0.086-0.247-0.19c0.00-0.111, 0.107-0.284, 0.323-0.521C 38.425,70.614, 38.79,70.357, 39.296,70.087z M 43.245,70.087 c 0.21-0.111, 0.315-0.248, 0.315-0.414c0.00-0.104-0.035-0.192-0.107-0.261c-0.071-0.069-0.163-0.103-0.273-0.103 c-0.276,0.00-0.656,0.16-1.141,0.479c-0.573,0.375-1.03,0.831-1.372,1.369s-0.512,1.069-0.512,1.593c0.00,0.248, 0.047,0.494, 0.141,0.74 c 0.094,0.245, 0.22,0.453, 0.38,0.625c 0.337,0.369, 0.741,0.554, 1.215,0.554c 0.485,0.00, 0.885-0.169, 1.199-0.505 c 0.127-0.138, 0.228-0.30, 0.302-0.488c 0.074-0.188, 0.112-0.378, 0.112-0.571c0.00-0.397-0.112-0.735-0.335-1.013 c-0.224-0.279-0.514-0.445-0.874-0.50l-0.124-0.008l-0.107-0.017c-0.165-0.022-0.248-0.086-0.248-0.19c0.00-0.111, 0.111-0.284, 0.331-0.521 C 42.376,70.602, 42.742,70.346, 43.245,70.087zM 66.344,69.559l 4.644,4.466L 70.987,71.32 c 1.407,0.00, 4.987,0.031, 4.987,3.713 c0.00,1.927-1.367,3.536-3.184,3.908c 2.921-0.396, 5.179-2.873, 5.179-5.903c0.00-5.628-6.013-5.676-6.981-5.676L 70.987,65.059 L 66.344,69.559 zM 109.649,69.559l-4.644,4.466L 105.005,71.32 c-1.406,0.00-4.987,0.031-4.987,3.713 c0.00,1.927, 1.367,3.536, 3.186,3.908c-2.921-0.396-5.18-2.873-5.18-5.903C 98.023,67.41, 104.036,67.362, 105.005,67.362L 105.005,65.059 L 109.649,69.559z M 140.501,68.197l0.00,6.266 l 2.019,0.00 l0.00,2.019 L 131.491,76.483 L 131.491,65.516 l 2.019,0.00 l0.00,1.988 L 139.725,67.505 l 2.32-2.32 l 0.703,0.703L 140.501,68.197z M 133.511,69.492L 133.511,73.75 l 4.226-4.258L 133.511,69.492 z M 138.482,70.185l-4.309,4.279l 4.309,0.00 L 138.482,70.185 z M 129.503,67.505l 1.522,0.00 l0.00,1.988 L 129.503,69.493 L 129.503,67.505 z M 140.501,78.471l-2.019,0.00 L 138.482,76.98 l 2.019,0.00 L 140.501,78.471 zM 174.00,76.00l0.00,2.00 l-2.00,0.00 l0.00-0.50 L 164.00,77.50 l0.00,0.50 L 162.00,78.00 l0.00-2.00 l 0.50,0.00 L 162.50,68.00 L 162.00,68.00 L 162.00,66.00 l 2.00,0.00 l0.00,0.50 l 8.00,0.00 L 172.00,66.00 l 2.00,0.00 l0.00,2.00 l-0.50,0.00 l0.00,8.00 L 174.00,76.00 z M 162.50,77.50l 1.00,0.00 l0.00-1.00 L 162.50,76.50 L 162.50,77.50 z M 163.50,66.50L 162.50,66.50 l0.00,1.00 l 1.00,0.00 L 163.50,66.50 z M 172.00,67.50L 164.00,67.50 l0.00,0.50 L 163.50,68.00 l0.00,8.00 l 0.50,0.00 l0.00,0.50 l 8.00,0.00 l0.00-0.50 l 0.50,0.00 L 172.50,68.00 l-0.50,0.00 L 172.00,67.50 z M 173.50,66.50l-1.00,0.00 l0.00,1.00 l 1.00,0.00 L 173.50,66.50 z M 172.50,76.50l0.00,1.00 l 1.00,0.00 l0.00-1.00 L 172.50,76.50 zM 206.00,76.00l0.00,2.00 l-2.00,0.00 l0.00-0.50 l-3.00,0.00 l0.00,0.50 l-2.00,0.00 l0.00-0.50 L 196.00,77.50 l0.00,0.50 L 194.00,78.00 l0.00-2.00 l 0.50,0.00 l0.00-3.00 L 194.00,73.00 l0.00-2.00 l 0.50,0.00 L 194.50,68.00 L 194.00,68.00 L 194.00,66.00 l 2.00,0.00 l0.00,0.50 l 3.00,0.00 L 199.00,66.00 l 2.00,0.00 l0.00,0.50 l 3.00,0.00 L 204.00,66.00 l 2.00,0.00 l0.00,2.00 l-0.50,0.00 l0.00,3.00 l 0.50,0.00 l0.00,2.00 l-0.50,0.00 l0.00,3.00 L 206.00,76.00 z M 199.50,77.50l 1.00,0.00 l0.00-1.00 l-1.00,0.00 L 199.50,77.50 z M 194.50,77.50l 1.00,0.00 l0.00-1.00 L 194.50,76.50 L 194.50,77.50 z M 194.50,72.50l 1.00,0.00 l0.00-1.00 L 194.50,71.50 L 194.50,72.50 z M 195.50,66.50L 194.50,66.50 l0.00,1.00 l 1.00,0.00 L 195.50,66.50 z M 200.50,66.50l-1.00,0.00 l0.00,1.00 l 1.00,0.00 L 200.50,66.50 z M 204.00,67.50l-3.00,0.00 l0.00,0.50 l-2.00,0.00 L 199.00,67.50 L 196.00,67.50 l0.00,0.50 L 195.50,68.00 l0.00,3.00 l 0.50,0.00 l0.00,2.00 L 195.50,73.00 l0.00,3.00 l 0.50,0.00 l0.00,0.50 l 3.00,0.00 l0.00-0.50 l 2.00,0.00 l0.00,0.50 l 3.00,0.00 l0.00-0.50 l 0.50,0.00 l0.00-3.00 l-0.50,0.00 l0.00-2.00 l 0.50,0.00 L 204.50,68.00 l-0.50,0.00 L 204.00,67.50 z M 205.50,66.50l-1.00,0.00 l0.00,1.00 l 1.00,0.00 L 205.50,66.50 z M 205.50,71.50l-1.00,0.00 l0.00,1.00 l 1.00,0.00 L 205.50,71.50 z M 204.50,76.50l0.00,1.00 l 1.00,0.00 l0.00-1.00 L 204.50,76.50 zM 237.25,77.50l-1.50,0.00 c-0.138,0.00-0.25-0.112-0.25-0.25s 0.112-0.25, 0.25-0.25L 237.00,77.00 l0.00-1.25 c0.00-0.138, 0.112-0.25, 0.25-0.25c 0.138,0.00, 0.25,0.112, 0.25,0.25l0.00,1.50 C 237.50,77.388, 237.387,77.50, 237.25,77.50z M 237.25,74.50c-0.138,0.00-0.25-0.112-0.25-0.25l0.00-1.50 c0.00-0.138, 0.112-0.25, 0.25-0.25c 0.138,0.00, 0.25,0.112, 0.25,0.25l0.00,1.50 C 237.50,74.388, 237.387,74.50, 237.25,74.50z M 237.25,71.50c-0.138,0.00-0.25-0.112-0.25-0.25l0.00-1.50 c0.00-0.138, 0.112-0.25, 0.25-0.25c 0.138,0.00, 0.25,0.112, 0.25,0.25l0.00,1.50 C 237.50,71.388, 237.387,71.50, 237.25,71.50z M 237.25,68.50C 237.112,68.50, 237.00,68.388, 237.00,68.25L 237.00,67.00 l-1.25,0.00 C 235.612,67.00, 235.50,66.888, 235.50,66.75S 235.612,66.50, 235.75,66.50l 1.50,0.00 C 237.387,66.50, 237.50,66.612, 237.50,66.75l0.00,1.50 C 237.50,68.388, 237.387,68.50, 237.25,68.50z M 231.333,74.527 c-0.092,0.092-0.241,0.092-0.334,0.00l-0.074-0.074l0.00,0.00l-0.079-0.079l-0.348-0.348c-0.001-0.002-0.001-0.004-0.002-0.004L 228.902,72.415 c-0.092-0.092-0.092-0.241,0.00-0.334l 0.501-0.501c 0.092-0.092, 0.242-0.092, 0.335,0.00l 1.43,1.44l 3.007-3.006 c 0.092-0.092, 0.241-0.092, 0.334,0.00l 0.501,0.501c 0.093,0.092, 0.093,0.242,0.00,0.335L 231.333,74.527z M 234.25,67.00l-1.50,0.00 C 232.612,67.00, 232.50,66.888, 232.50,66.75 S 232.612,66.50, 232.75,66.50l 1.50,0.00 C 234.387,66.50, 234.50,66.612, 234.50,66.75S 234.387,67.00, 234.25,67.00z M 231.25,67.00l-1.50,0.00 C 229.612,67.00, 229.50,66.888, 229.50,66.75S 229.612,66.50, 229.75,66.50l 1.50,0.00 C 231.388,66.50, 231.50,66.612, 231.50,66.75S 231.388,67.00, 231.25,67.00z M 228.25,77.50l-1.50,0.00 C 226.612,77.50, 226.50,77.388, 226.50,77.25l0.00-1.50 C 226.50,75.612, 226.612,75.50, 226.75,75.50 C 226.888,75.50, 227.00,75.612, 227.00,75.75L 227.00,77.00 l 1.25,0.00 C 228.388,77.00, 228.50,77.112, 228.50,77.25S 228.388,77.50, 228.25,77.50z M 228.25,67.00L 227.00,67.00 l0.00,1.25 C 227.00,68.388, 226.888,68.50, 226.75,68.50 C 226.612,68.50, 226.50,68.388, 226.50,68.25l0.00-1.50 C 226.50,66.612, 226.612,66.50, 226.75,66.50l 1.50,0.00 C 228.388,66.50, 228.50,66.612, 228.50,66.75S 228.388,67.00, 228.25,67.00z M 226.75,69.50C 226.888,69.50, 227.00,69.612, 227.00,69.75l0.00,1.50 C 227.00,71.388, 226.888,71.50, 226.75,71.50C 226.612,71.50, 226.50,71.388, 226.50,71.25l0.00-1.50 C 226.50,69.612, 226.612,69.50, 226.75,69.50z M 226.75,72.50C 226.888,72.50, 227.00,72.612, 227.00,72.75l0.00,1.50 C 227.00,74.388, 226.888,74.50, 226.75,74.50C 226.612,74.50, 226.50,74.388, 226.50,74.25l0.00-1.50 C 226.50,72.612, 226.612,72.50, 226.75,72.50z M 229.75,77.00l 1.50,0.00 c 0.138,0.00, 0.25,0.112, 0.25,0.25 S 231.388,77.50, 231.25,77.50l-1.50,0.00 c-0.138,0.00-0.25-0.112-0.25-0.25S 229.612,77.00, 229.75,77.00z M 232.75,77.00l 1.50,0.00 c 0.138,0.00, 0.25,0.112, 0.25,0.25S 234.387,77.50, 234.25,77.50l-1.50,0.00 c-0.138,0.00-0.25-0.112-0.25-0.25S 232.612,77.00, 232.75,77.00zM 269.25,77.50l-1.50,0.00 c-0.138,0.00-0.25-0.112-0.25-0.25s 0.112-0.25, 0.25-0.25L 269.00,77.00 l0.00-1.25 c0.00-0.138, 0.112-0.25, 0.25-0.25c 0.138,0.00, 0.25,0.112, 0.25,0.25l0.00,1.50 C 269.50,77.388, 269.387,77.50, 269.25,77.50z M 269.25,74.50c-0.138,0.00-0.25-0.112-0.25-0.25l0.00-1.50 c0.00-0.138, 0.112-0.25, 0.25-0.25c 0.138,0.00, 0.25,0.112, 0.25,0.25l0.00,1.50 C 269.50,74.388, 269.387,74.50, 269.25,74.50z M 269.25,71.50c-0.138,0.00-0.25-0.112-0.25-0.25l0.00-1.50 c0.00-0.138, 0.112-0.25, 0.25-0.25c 0.138,0.00, 0.25,0.112, 0.25,0.25l0.00,1.50 C 269.50,71.388, 269.387,71.50, 269.25,71.50z M 269.25,68.50C 269.112,68.50, 269.00,68.388, 269.00,68.25L 269.00,67.00 l-1.25,0.00 C 267.612,67.00, 267.50,66.888, 267.50,66.75S 267.612,66.50, 267.75,66.50l 1.50,0.00 C 269.387,66.50, 269.50,66.612, 269.50,66.75l0.00,1.50 C 269.50,68.388, 269.387,68.50, 269.25,68.50z M 266.25,77.50l-1.50,0.00 c-0.138,0.00-0.25-0.112-0.25-0.25s 0.112-0.25, 0.25-0.25l 1.50,0.00 c 0.138,0.00, 0.25,0.112, 0.25,0.25S 266.387,77.50, 266.25,77.50z M 266.25,67.00l-1.50,0.00 C 264.612,67.00, 264.50,66.888, 264.50,66.75S 264.612,66.50, 264.75,66.50l 1.50,0.00 C 266.387,66.50, 266.50,66.612, 266.50,66.75S 266.387,67.00, 266.25,67.00z M 263.25,67.00l-1.50,0.00 C 261.612,67.00, 261.50,66.888, 261.50,66.75 S 261.612,66.50, 261.75,66.50l 1.50,0.00 C 263.388,66.50, 263.50,66.612, 263.50,66.75S 263.388,67.00, 263.25,67.00z M 260.25,77.50l-1.50,0.00 C 258.612,77.50, 258.50,77.388, 258.50,77.25l0.00-1.50 C 258.50,75.612, 258.612,75.50, 258.75,75.50 C 258.888,75.50, 259.00,75.612, 259.00,75.75L 259.00,77.00 l 1.25,0.00 C 260.388,77.00, 260.50,77.112, 260.50,77.25S 260.388,77.50, 260.25,77.50z M 260.25,67.00L 259.00,67.00 l0.00,1.25 C 259.00,68.388, 258.888,68.50, 258.75,68.50 C 258.612,68.50, 258.50,68.388, 258.50,68.25l0.00-1.50 C 258.50,66.612, 258.612,66.50, 258.75,66.50l 1.50,0.00 C 260.388,66.50, 260.50,66.612, 260.50,66.75S 260.388,67.00, 260.25,67.00z M 258.75,69.50C 258.888,69.50, 259.00,69.612, 259.00,69.75l0.00,1.50 C 259.00,71.388, 258.888,71.50, 258.75,71.50C 258.612,71.50, 258.50,71.388, 258.50,71.25l0.00-1.50 C 258.50,69.612, 258.612,69.50, 258.75,69.50z M 258.75,72.50C 258.888,72.50, 259.00,72.612, 259.00,72.75l0.00,1.50 C 259.00,74.388, 258.888,74.50, 258.75,74.50C 258.612,74.50, 258.50,74.388, 258.50,74.25l0.00-1.50 C 258.50,72.612, 258.612,72.50, 258.75,72.50z M 266.368,73.861l-0.507,0.507 c-0.093,0.093-0.244,0.093-0.338,0.00l-1.435-1.435l-1.435,1.435c-0.093,0.093-0.244,0.093-0.338,0.00l-0.506-0.507 c-0.093-0.093-0.093-0.244,0.00-0.338l 1.435-1.435l-1.435-1.435c-0.093-0.093-0.093-0.244,0.00-0.338l 0.506-0.506 c 0.093-0.093, 0.244-0.093, 0.338,0.00l 1.435,1.435l 1.435-1.435c 0.093-0.093, 0.244-0.093, 0.338,0.00l 0.507,0.506 c 0.093,0.093, 0.093,0.244,0.00,0.338l-1.435,1.435l 1.435,1.435C 266.461,73.617, 266.461,73.768, 266.368,73.861z M 261.75,77.00l 1.50,0.00 c 0.138,0.00, 0.25,0.112, 0.25,0.25S 263.388,77.50, 263.25,77.50l-1.50,0.00 c-0.138,0.00-0.25-0.112-0.25-0.25S 261.612,77.00, 261.75,77.00zM 301.25,77.50l-1.50,0.00 c-0.138,0.00-0.25-0.112-0.25-0.25s 0.112-0.25, 0.25-0.25L 301.00,77.00 l0.00-1.25 c0.00-0.138, 0.112-0.25, 0.25-0.25c 0.138,0.00, 0.25,0.112, 0.25,0.25l0.00,1.50 C 301.50,77.388, 301.387,77.50, 301.25,77.50z M 301.25,74.50c-0.138,0.00-0.25-0.112-0.25-0.25l0.00-1.50 c0.00-0.138, 0.112-0.25, 0.25-0.25c 0.138,0.00, 0.25,0.112, 0.25,0.25l0.00,1.50 C 301.50,74.388, 301.387,74.50, 301.25,74.50z M 301.25,71.50c-0.138,0.00-0.25-0.112-0.25-0.25l0.00-1.50 c0.00-0.138, 0.112-0.25, 0.25-0.25c 0.138,0.00, 0.25,0.112, 0.25,0.25l0.00,1.50 C 301.50,71.388, 301.387,71.50, 301.25,71.50z M 301.25,68.50C 301.112,68.50, 301.00,68.388, 301.00,68.25L 301.00,67.00 l-1.25,0.00 C 299.612,67.00, 299.50,66.888, 299.50,66.75S 299.612,66.50, 299.75,66.50l 1.50,0.00 C 301.387,66.50, 301.50,66.612, 301.50,66.75l0.00,1.50 C 301.50,68.388, 301.387,68.50, 301.25,68.50z M 298.25,77.50l-1.50,0.00 c-0.138,0.00-0.25-0.112-0.25-0.25s 0.112-0.25, 0.25-0.25l 1.50,0.00 c 0.138,0.00, 0.25,0.112, 0.25,0.25S 298.387,77.50, 298.25,77.50z M 298.25,67.00l-1.50,0.00 C 296.612,67.00, 296.50,66.888, 296.50,66.75S 296.612,66.50, 296.75,66.50l 1.50,0.00 C 298.387,66.50, 298.50,66.612, 298.50,66.75S 298.387,67.00, 298.25,67.00z M 297.969,71.50c 0.276,0.00, 0.50,0.224, 0.50,0.50 c0.00,0.276-0.224,0.50-0.50,0.50l-1.50,0.00 l0.00,1.50 c0.00,0.276-0.224,0.50-0.50,0.50c-0.277,0.00-0.50-0.224-0.50-0.50l0.00-1.50 l-1.50,0.00 c-0.276,0.00-0.50-0.224-0.50-0.50c0.00-0.277, 0.224-0.50, 0.50-0.50l 1.50,0.00 l0.00-1.50 c0.00-0.277, 0.224-0.50, 0.50-0.50c 0.276,0.00, 0.50,0.224, 0.50,0.50l0.00,1.50 L 297.969,71.50 z M 295.25,67.00l-1.50,0.00 C 293.612,67.00, 293.50,66.888, 293.50,66.75S 293.612,66.50, 293.75,66.50l 1.50,0.00 C 295.388,66.50, 295.50,66.612, 295.50,66.75S 295.388,67.00, 295.25,67.00z M 292.25,77.50l-1.50,0.00 C 290.612,77.50, 290.50,77.388, 290.50,77.25l0.00-1.50 C 290.50,75.612, 290.612,75.50, 290.75,75.50 C 290.888,75.50, 291.00,75.612, 291.00,75.75L 291.00,77.00 l 1.25,0.00 C 292.388,77.00, 292.50,77.112, 292.50,77.25S 292.388,77.50, 292.25,77.50z M 292.25,67.00L 291.00,67.00 l0.00,1.25 C 291.00,68.388, 290.888,68.50, 290.75,68.50 C 290.612,68.50, 290.50,68.388, 290.50,68.25l0.00-1.50 C 290.50,66.612, 290.612,66.50, 290.75,66.50l 1.50,0.00 C 292.388,66.50, 292.50,66.612, 292.50,66.75S 292.388,67.00, 292.25,67.00z M 290.75,69.50C 290.888,69.50, 291.00,69.612, 291.00,69.75l0.00,1.50 C 291.00,71.388, 290.888,71.50, 290.75,71.50C 290.612,71.50, 290.50,71.388, 290.50,71.25l0.00-1.50 C 290.50,69.612, 290.612,69.50, 290.75,69.50z M 290.75,72.50C 290.888,72.50, 291.00,72.612, 291.00,72.75l0.00,1.50 C 291.00,74.388, 290.888,74.50, 290.75,74.50C 290.612,74.50, 290.50,74.388, 290.50,74.25l0.00-1.50 C 290.50,72.612, 290.612,72.50, 290.75,72.50z M 293.75,77.00l 1.50,0.00 c 0.138,0.00, 0.25,0.112, 0.25,0.25 S 295.388,77.50, 295.25,77.50l-1.50,0.00 c-0.138,0.00-0.25-0.112-0.25-0.25S 293.612,77.00, 293.75,77.00zM 324.25,66.50l-1.50,0.00 C 322.612,66.50, 322.50,66.612, 322.50,66.75l0.00,1.50 C 322.50,68.388, 322.612,68.50, 322.75,68.50C 322.888,68.50, 323.00,68.388, 323.00,68.25 L 323.00,67.00 l 1.25,0.00 C 324.388,67.00, 324.50,66.888, 324.50,66.75S 324.388,66.50, 324.25,66.50z M 325.75,67.00l 1.50,0.00 C 327.388,67.00, 327.50,66.888, 327.50,66.75S 327.388,66.50, 327.25,66.50l-1.50,0.00 C 325.612,66.50, 325.50,66.612, 325.50,66.75 S 325.612,67.00, 325.75,67.00z M 330.25,66.50l-1.50,0.00 C 328.612,66.50, 328.50,66.612, 328.50,66.75S 328.612,67.00, 328.75,67.00l 1.50,0.00 C 330.387,67.00, 330.50,66.888, 330.50,66.75S 330.387,66.50, 330.25,66.50z M 333.25,66.50l-1.50,0.00 C 331.612,66.50, 331.50,66.612, 331.50,66.75S 331.612,67.00, 331.75,67.00L 333.00,67.00 l0.00,1.25 C 333.00,68.388, 333.112,68.50, 333.25,68.50C 333.387,68.50, 333.50,68.388, 333.50,68.25l0.00-1.50 C 333.50,66.612, 333.387,66.50, 333.25,66.50z M 333.25,69.50c-0.138,0.00-0.25,0.112-0.25,0.25l0.00,1.50 c0.00,0.138, 0.112,0.25, 0.25,0.25c 0.138,0.00, 0.25-0.112, 0.25-0.25l0.00-1.50 C 333.50,69.612, 333.387,69.50, 333.25,69.50z M 333.25,72.50c-0.138,0.00-0.25,0.112-0.25,0.25l0.00,1.50 c0.00,0.138, 0.112,0.25, 0.25,0.25c 0.138,0.00, 0.25-0.112, 0.25-0.25l0.00-1.50 C 333.50,72.612, 333.387,72.50, 333.25,72.50z M 333.25,75.50c-0.138,0.00-0.25,0.112-0.25,0.25L 333.00,77.00 l-1.25,0.00 c-0.138,0.00-0.25,0.112-0.25,0.25s 0.112,0.25, 0.25,0.25l 1.50,0.00 c 0.138,0.00, 0.25-0.112, 0.25-0.25l0.00-1.50 C 333.50,75.612, 333.387,75.50, 333.25,75.50z M 330.25,77.00l-1.50,0.00 c-0.138,0.00-0.25,0.112-0.25,0.25s 0.112,0.25, 0.25,0.25l 1.50,0.00 c 0.138,0.00, 0.25-0.112, 0.25-0.25S 330.387,77.00, 330.25,77.00z M 327.25,77.00l-1.50,0.00 c-0.138,0.00-0.25,0.112-0.25,0.25s 0.112,0.25, 0.25,0.25l 1.50,0.00 c 0.138,0.00, 0.25-0.112, 0.25-0.25S 327.388,77.00, 327.25,77.00z M 324.25,77.00L 323.00,77.00 l0.00-1.25 C 323.00,75.612, 322.888,75.50, 322.75,75.50C 322.612,75.50, 322.50,75.612, 322.50,75.75l0.00,1.50 C 322.50,77.388, 322.612,77.50, 322.75,77.50l 1.50,0.00 C 324.388,77.50, 324.50,77.388, 324.50,77.25S 324.388,77.00, 324.25,77.00z M 322.75,74.50C 322.888,74.50, 323.00,74.388, 323.00,74.25l0.00-1.50 C 323.00,72.612, 322.888,72.50, 322.75,72.50C 322.612,72.50, 322.50,72.612, 322.50,72.75l0.00,1.50 C 322.50,74.388, 322.612,74.50, 322.75,74.50z M 322.75,71.50C 322.888,71.50, 323.00,71.388, 323.00,71.25l0.00-1.50 C 323.00,69.612, 322.888,69.50, 322.75,69.50C 322.612,69.50, 322.50,69.612, 322.50,69.75l0.00,1.50 C 322.50,71.388, 322.612,71.50, 322.75,71.50z M 325.969,72.50l 4.00,0.00 c 0.277,0.00, 0.50-0.224, 0.50-0.50 c0.00-0.277-0.224-0.50-0.50-0.50l-4.00,0.00 c-0.277,0.00-0.50,0.224-0.50,0.50C 325.469,72.276, 325.692,72.50, 325.969,72.50zM 364.276,70.906l-3.182-3.182c-0.195-0.196-0.195-0.511,0.00-0.707 c 0.196-0.196, 0.512-0.196, 0.708,0.00l 0.353,0.353l 1.591-1.591c 0.683-0.683, 1.791-0.683, 2.474,0.00c 0.683,0.683, 0.683,1.792,0.00,2.474 l-1.591,1.591l 0.353,0.353c 0.196,0.196, 0.196,0.511,0.00,0.707S 364.471,71.101, 364.276,70.906z M 356.801,77.674 c-0.309,0.309-1.083-0.331-1.414,0.00l-0.84,0.84c-0.292,0.293-0.767,0.293-1.06,0.00s-0.293-0.767,0.00-1.06l 0.84-0.84 c 0.332-0.331-0.309-1.105,0.00-1.414C 354.635,74.889, 361.088,68.438, 361.088,68.438l 2.474,2.475C 363.563,70.912, 357.111,77.364, 356.801,77.674z M 362.855,70.912l-1.768-1.768c0.00,0.00-5.745,5.745-6.054,6.055c-0.309,0.309, 0.309,1.105,0.00,1.414L 353.84,77.806 c-0.098,0.098-0.098,0.256,0.00,0.353s 0.256,0.098, 0.353,0.00l 1.194-1.194c 0.309-0.309, 1.105,0.309, 1.414,0.00 C 357.111,76.657, 362.855,70.912, 362.855,70.912zM 391.75,79.531c-3.452,0.00-6.25-2.799-6.25-6.25c0.00-2.658, 1.661-4.922, 4.00-5.825l0.00,2.224 c-1.20,0.751-2.00,2.081-2.00,3.601c0.00,2.347, 1.903,4.25, 4.25,4.25s 4.25-1.903, 4.25-4.25c0.00-1.298-0.583-2.458-1.50-3.237L 394.50,67.675 c 2.071,1.018, 3.50,3.142, 3.50,5.606C 398.00,76.733, 395.201,79.531, 391.75,79.531z M 392.00,72.531c-0.552,0.00-1.00-0.448-1.00-1.00L 391.00,65.969 c0.00-0.552, 0.448-1.00, 1.00-1.00 s 1.00,0.448, 1.00,1.00l0.00,5.563 C 393.00,72.084, 392.552,72.531, 392.00,72.531zM 429.50,64.00 C 430.881,64.00 432.00,65.119 432.00,66.50 C 432.00,67.063 431.814,67.582 431.50,68.00 L 430.50,69.00 L 427.00,65.50 L 428.00,64.50 C 428.418,64.186 428.937,64.00 429.50,64.00 ZM 417.00,75.50L 416.00,80.00l 4.50-1.00l 9.25-9.25L 426.25,66.25L 417.00,75.50z M 427.181,69.681l-7.00,7.00l-0.862-0.862l 7.00-7.00L 427.181,69.681zM 461.939,66.939l-1.879-1.879C 459.477,64.477, 458.325,64.00, 457.50,64.00L 450.50,64.00 C 449.675,64.00, 449.00,64.675, 449.00,65.50l0.00,13.00 c0.00,0.825, 0.675,1.50, 1.50,1.50l 11.00,0.00 c 0.825,0.00, 1.50-0.675, 1.50-1.50L 463.00,69.50 C 463.00,68.675, 462.523,67.523, 461.939,66.939z M 458.00,66.118c 0.034,0.013, 0.07,0.026, 0.106,0.041 c 0.282,0.117, 0.478,0.253, 0.541,0.316l 1.879,1.879c 0.063,0.063, 0.199,0.259, 0.316,0.541c 0.015,0.036, 0.029,0.071, 0.041,0.106 L 458.00,69.00 L 458.00,66.118 z M 461.00,78.00L 451.00,78.00 L 451.00,66.00 l 6.00,0.00 l0.00,4.00 l 4.00,0.00 L 461.00,78.00 zM 493.00,68.00l-3.00,0.00 L 490.00,67.00 L 487.00,64.00L 480.00,64.00 l0.00,12.00 l 6.00,0.00 l0.00,4.00 l 10.00,0.00 L 496.00,71.00 L 493.00,68.00z M 493.00,69.414L 494.586,71.00L 493.00,71.00 L 493.00,69.414 z M 487.00,65.414L 488.586,67.00L 487.00,67.00 L 487.00,65.414 z M 481.00,65.00l 5.00,0.00 l0.00,3.00 l 3.00,0.00 l0.00,7.00 L 481.00,75.00 L 481.00,65.00 z M 495.00,79.00L 487.00,79.00 l0.00-3.00 l 3.00,0.00 L 490.00,69.00 l 2.00,0.00 l0.00,3.00 l 3.00,0.00 L 495.00,79.00 zM 13.00,101.00L 13.00,98.50 c0.00-0.275-0.225-0.50-0.50-0.50L 9.00,98.00 L 9.00,97.00 c0.00-0.55-0.45-1.00-1.00-1.00l-2.00,0.00 c-0.55,0.00-1.00,0.45-1.00,1.00l0.00,1.00 L 1.50,98.00 c-0.275,0.00-0.50,0.225-0.50,0.50l0.00,10.00 c0.00,0.275, 0.225,0.50, 0.50,0.50l 4.50,0.00 l0.00,3.00 l 7.00,0.00 l 3.00-3.00L 16.00,101.00 L 13.00,101.00 z M 6.00,97.002c 0.001-0.001, 0.001-0.001, 0.002-0.002l 1.996,0.00 c 0.001,0.001, 0.001,0.001, 0.002,0.002L 8.00,98.00 l-2.00,0.00 L 6.00,97.002 z M 3.00,100.00L 3.00,99.00 l 8.00,0.00 l0.00,1.00 L 3.00,100.00 z M 13.00,110.586L 13.00,109.00 l 1.586,0.00 L 13.00,110.586z M 15.00,108.00l-3.00,0.00 l0.00,3.00 L 7.00,111.00 L 7.00,102.00 l 8.00,0.00 L 15.00,108.00 zM 46.00,96.00L 32.00,96.00 l0.00,16.00 l 16.00,0.00 L 48.00,98.00 L 46.00,96.00z M 40.00,98.00l 2.00,0.00 l0.00,4.00 l-2.00,0.00 L 40.00,98.00 z M 46.00,110.00L 34.00,110.00 L 34.00,98.00 l 1.00,0.00 l0.00,5.00 l 9.00,0.00 L 44.00,98.00 l 1.172,0.00 L 46.00,98.828L 46.00,110.00 zM 72.00,97.00c-2.209,0.00-4.209,0.896-5.657,2.343L 64.00,97.00l0.00,6.00 l 6.00,0.00 l-2.243-2.243C 68.843,99.672, 70.343,99.00, 72.00,99.00 c 3.314,0.00, 6.00,2.686, 6.00,6.00c0.00,1.792-0.786,3.401-2.032,4.50l 1.323,1.50C 78.952,109.534, 80.00,107.389, 80.00,105.00 C 80.00,100.582, 76.418,97.00, 72.00,97.00zM 96.00,105.00c0.00,2.389, 1.048,4.534, 2.709,6.00l 1.323-1.50C 98.786,108.401, 98.00,106.792, 98.00,105.00c0.00-3.314, 2.686-6.00, 6.00-6.00 c 1.657,0.00, 3.157,0.672, 4.243,1.757L 106.00,103.00l 6.00,0.00 L 112.00,97.00 l-2.343,2.343C 108.209,97.896, 106.209,97.00, 104.00,97.00 C 99.582,97.00, 96.00,100.582, 96.00,105.00zM 143.504,109.616L 139.714,106.392c-0.392-0.353-0.811-0.514-1.149-0.499C 139.46,104.845, 140.00,103.486, 140.00,102.00 C 140.00,98.686, 137.314,96.00, 134.00,96.00C 130.686,96.00, 128.00,98.686, 128.00,102.00c0.00,3.314, 2.686,6.00, 6.00,6.00c 1.486,0.00, 2.845-0.54, 3.893-1.435 c-0.016,0.338, 0.146,0.757, 0.499,1.149l 3.223,3.79c 0.552,0.613, 1.453,0.665, 2.003,0.115S 144.117,110.167, 143.504,109.616 z M 134.00,106.00c-2.209,0.00-4.00-1.791-4.00-4.00S 131.791,98.00, 134.00,98.00s 4.00,1.791, 4.00,4.00S 136.209,106.00, 134.00,106.00zM 135.00,99.00L 133.00,99.00L 133.00,101.00L 131.00,101.00L 131.00,103.00L 133.00,103.00L 133.00,105.00L 135.00,105.00L 135.00,103.00L 137.00,103.00L 137.00,101.00L 135.00,101.00 zM 175.504,109.616L 171.714,106.392c-0.392-0.353-0.811-0.514-1.149-0.499C 171.46,104.845, 172.00,103.486, 172.00,102.00 C 172.00,98.686, 169.314,96.00, 166.00,96.00C 162.686,96.00, 160.00,98.686, 160.00,102.00c0.00,3.314, 2.686,6.00, 6.00,6.00c 1.486,0.00, 2.845-0.54, 3.893-1.435 c-0.016,0.338, 0.146,0.757, 0.499,1.149l 3.223,3.79c 0.552,0.613, 1.453,0.665, 2.003,0.115S 176.117,110.167, 175.504,109.616 z M 166.00,106.00c-2.209,0.00-4.00-1.791-4.00-4.00S 163.791,98.00, 166.00,98.00s 4.00,1.791, 4.00,4.00S 168.209,106.00, 166.00,106.00zM 163.00,101.00L 169.00,101.00L 169.00,103.00L 163.00,103.00zM 208.00,96.00 L 208.00,102.50 L 205.50,100.00 L 202.50,103.00 L 201.00,101.50 L 204.00,98.50 L 201.50,96.00 ZM 199.00,106.50 L 196.00,109.50 L 198.50,112.00 L 192.00,112.00 L 192.00,105.50 L 194.50,108.00 L 197.50,105.00 ZM 231.00,105.00 L 231.00,111.50 L 228.50,109.00 L 225.50,112.00 L 224.00,110.50 L 227.00,107.50 L 224.50,105.00 ZM 240.00,97.50 L 237.00,100.50 L 239.50,103.00 L 233.00,103.00 L 233.00,96.50 L 235.50,99.00 L 238.50,96.00 ZM 272.00,105.501l0.00-3.003 l-2.293-0.382c-0.093-0.283-0.207-0.557-0.339-0.82l 1.351-1.891l-2.123-2.123l-1.888,1.349 c-0.264-0.134-0.54-0.248-0.825-0.342L 265.501,96.00l-3.003,0.00 l-0.381,2.288c-0.285,0.094-0.56,0.209-0.824,0.342 l-1.888-1.349l-2.123,2.123l 1.351,1.891c-0.132,0.263-0.246,0.537-0.339,0.82L 256.00,102.499l0.00,3.003 l 2.299,0.383 c 0.093,0.281, 0.206,0.552, 0.338,0.813l-1.355,1.898l 2.123,2.123l 1.901-1.358c 0.259,0.13, 0.53,0.243, 0.809,0.335 L 262.499,112.00l 3.003,0.00 l 0.384-2.304c 0.279-0.092, 0.549-0.204, 0.809-0.335l 1.901,1.358l 2.123-2.123l-1.355-1.898 c 0.132-0.261, 0.245-0.532, 0.338-0.813L 272.00,105.501z M 264.00,106.00c-1.105,0.00-2.00-0.895-2.00-2.00c0.00-1.105, 0.895-2.00, 2.00-2.00 c 1.105,0.00, 2.00,0.895, 2.00,2.00C 266.00,105.105, 265.105,106.00, 264.00,106.00zM 300.50,98.00L 291.50,98.00 c-0.828,0.00-1.50,0.672-1.50,1.50l0.00,0.50 l 12.00,0.00 l0.00-0.50 C 302.00,98.672, 301.328,98.00, 300.50,98.00zM 297.88,97.00l 0.221,1.578L 293.899,98.578 l 0.221-1.578L 297.88,97.00 M 298.00,96.00L 294.00,96.00 c-0.412,0.00-0.797,0.334-0.854,0.743l-0.292,2.093 C 292.797,99.244, 293.088,99.578, 293.50,99.578l 5.00,0.00 c 0.412,0.00, 0.703-0.334, 0.646-0.743l-0.292-2.093C 298.797,96.334, 298.412,96.00, 298.00,96.00L 298.00,96.00z M 300.75,101.00L 291.25,101.00 c-0.55,0.00-0.959,0.448-0.909,0.996l 0.819,9.008C 291.209,111.552, 291.70,112.00, 292.25,112.00l 7.50,0.00 c 0.55,0.00, 1.041-0.448, 1.091-0.996l 0.819-9.008C 301.709,101.448, 301.30,101.00, 300.75,101.00z M 294.00,110.00l-1.50,0.00 l-0.50-7.00l 2.00,0.00 L 294.00,110.00 z M 297.00,110.00l-2.00,0.00 L 295.00,103.00 l 2.00,0.00 L 297.00,110.00 z M 299.50,110.00l-1.50,0.00 L 298.00,103.00 l 2.00,0.00 L 299.50,110.00zM 335.25,108.00l-0.25,0.00 L 335.00,104.75 c0.00-0.965-0.785-1.75-1.75-1.75L 329.00,103.00 l0.00-2.00 l 0.25,0.00 c 0.412,0.00, 0.75-0.338, 0.75-0.75L 330.00,97.75 c0.00-0.412-0.338-0.75-0.75-0.75l-2.50,0.00 c-0.412,0.00-0.75,0.338-0.75,0.75l0.00,2.50 c0.00,0.412, 0.338,0.75, 0.75,0.75l 0.25,0.00 l0.00,2.00 L 322.75,103.00 c-0.965,0.00-1.75,0.785-1.75,1.75l0.00,3.25 l-0.25,0.00 c-0.412,0.00-0.75,0.338-0.75,0.75l0.00,2.50 c0.00,0.412, 0.338,0.75, 0.75,0.75l 2.50,0.00 c 0.412,0.00, 0.75-0.338, 0.75-0.75l0.00-2.50 c0.00-0.412-0.338-0.75-0.75-0.75l-0.25,0.00 l0.00-3.00 l 4.00,0.00 l0.00,3.00 l-0.25,0.00 c-0.412,0.00-0.75,0.338-0.75,0.75l0.00,2.50 c0.00,0.412, 0.338,0.75, 0.75,0.75l 2.50,0.00 c 0.412,0.00, 0.75-0.338, 0.75-0.75l0.00-2.50 c0.00-0.412-0.338-0.75-0.75-0.75l-0.25,0.00 l0.00-3.00 l 4.00,0.00 l0.00,3.00 l-0.25,0.00 c-0.412,0.00-0.75,0.338-0.75,0.75l0.00,2.50 c0.00,0.412, 0.338,0.75, 0.75,0.75l 2.50,0.00 c 0.412,0.00, 0.75-0.338, 0.75-0.75l0.00-2.50 C 336.00,108.338, 335.662,108.00, 335.25,108.00z M 323.00,111.00L 321.00,111.00 l0.00-2.00 l 2.00,0.00 L 323.00,111.00 z M 329.00,111.00l-2.00,0.00 l0.00-2.00 l 2.00,0.00 L 329.00,111.00 z M 327.00,100.00L 327.00,98.00 l 2.00,0.00 l0.00,2.00 L 327.00,100.00 z M 335.00,111.00l-2.00,0.00 l0.00-2.00 l 2.00,0.00 L 335.00,111.00 zM 360.00,99.00C 356.511,99.00, 353.486,101.032, 352.00,104.00c 1.486,2.968, 4.511,5.00, 8.00,5.00c 3.489,0.00, 6.514-2.032, 8.00-5.00 C 366.514,101.032, 363.489,99.00, 360.00,99.00z M 363.945,101.652c 0.94,0.60, 1.737,1.403, 2.335,2.348 c-0.598,0.946-1.395,1.749-2.335,2.348C 362.763,107.102, 361.399,107.50, 360.00,107.50c-1.399,0.00-2.763-0.398-3.945-1.152 C 355.115,105.749, 354.319,104.946, 353.721,104.00c 0.598-0.946, 1.395-1.749, 2.335-2.348c 0.061-0.039, 0.123-0.077, 0.185-0.114 C 356.085,101.965, 356.00,102.425, 356.00,102.906c0.00,2.209, 1.791,4.00, 4.00,4.00s 4.00-1.791, 4.00-4.00c0.00-0.481-0.085-0.942-0.241-1.369 C 363.821,101.575, 363.883,101.613, 363.945,101.652z M 360.00,102.406c0.00,0.828-0.672,1.50-1.50,1.50s-1.50-0.672-1.50-1.50s 0.672-1.50, 1.50-1.50 S 360.00,101.578, 360.00,102.406zM 399.854,108.854c0.00,0.000.00,0.000.00,0.00L 395.00,104.00l 4.854-4.854c 0.00,0.00, 0.00,0.00, 0.00,0.00 c 0.052-0.052, 0.09-0.113, 0.114-0.178c 0.066-0.178, 0.029-0.386-0.114-0.529L 397.561,96.146c-0.143-0.143-0.351-0.181-0.529-0.114 c-0.065,0.024-0.126,0.062-0.178,0.114c0.00,0.000.00,0.000.00,0.00L 392.00,101.00L 387.146,96.146 c0.00,0.000.00,0.000.00,0.00c-0.052-0.052-0.113-0.09-0.178-0.114c-0.178-0.066-0.386-0.029-0.529,0.114L 384.146,98.439 c-0.143,0.143-0.181,0.351-0.114,0.529c 0.024,0.065, 0.062,0.126, 0.114,0.178c 0.00,0.00, 0.00,0.00, 0.00,0.00L 389.00,104.00 L 384.146,108.854c0.00,0.000.00,0.000.00,0.00c-0.052,0.052-0.09,0.113-0.114,0.178c-0.066,0.178-0.029,0.386, 0.114,0.529 l 2.293,2.293c 0.143,0.143, 0.351,0.181, 0.529,0.114c 0.065-0.024, 0.126-0.062, 0.178-0.114c 0.00,0.00, 0.00,0.00, 0.00,0.00 l 4.854-4.854l 4.854,4.854c 0.00,0.00, 0.00,0.00, 0.00,0.00c 0.052,0.052, 0.113,0.09, 0.178,0.114 c 0.178,0.066, 0.386,0.029, 0.529-0.114l 2.293-2.293c 0.143-0.143, 0.181-0.351, 0.114-0.529 C 399.944,108.967, 399.906,108.906, 399.854,108.854zM 429.50,98.00L 422.00,105.50L 418.50,102.00L 416.00,104.50L 422.00,110.50L 432.00,100.50 zM 448.00,102.50l0.00,3.00 c0.00,0.276, 0.224,0.50, 0.50,0.50l 15.00,0.00 c 0.276,0.00, 0.50-0.224, 0.50-0.50l0.00-3.00 c0.00-0.276-0.224-0.50-0.50-0.50L 448.50,102.00 C 448.224,102.00, 448.00,102.224, 448.00,102.50zM 495.50,102.00L 490.00,102.00 L 490.00,96.50 c0.00-0.276-0.224-0.50-0.50-0.50l-3.00,0.00 c-0.276,0.00-0.50,0.224-0.50,0.50l0.00,5.50 L 480.50,102.00 c-0.276,0.00-0.50,0.224-0.50,0.50l0.00,3.00 c0.00,0.276, 0.224,0.50, 0.50,0.50l 5.50,0.00 l0.00,5.50 c0.00,0.276, 0.224,0.50, 0.50,0.50l 3.00,0.00 c 0.276,0.00, 0.50-0.224, 0.50-0.50L 490.00,106.00 l 5.50,0.00 c 0.276,0.00, 0.50-0.224, 0.50-0.50l0.00-3.00 C 496.00,102.224, 495.776,102.00, 495.50,102.00zM 13.657,130.343C 12.209,128.896, 10.209,128.00, 8.00,128.00C 4.571,128.00, 1.645,130.158, 0.508,133.19l 1.873,0.702 C 3.234,131.619, 5.428,130.00, 8.00,130.00c 1.657,0.00, 3.157,0.672, 4.242,1.758L 10.00,134.00l 6.00,0.00 L 16.00,128.00 L 13.657,130.343zM 8.00,142.00c-1.657,0.00-3.157-0.672-4.242-1.758L 6.00,138.00L0.00,138.00 l0.00,6.00 l 2.344-2.344C 3.791,143.104, 5.791,144.00, 8.00,144.00 c 3.43,0.00, 6.355-2.158, 7.492-5.19l-1.873-0.702C 12.766,140.381, 10.572,142.00, 8.00,142.00zM 40.00,128.00L 32.00,136.00L 37.00,136.00L 37.00,144.00L 43.00,144.00L 43.00,136.00L 48.00,136.00 zM 80.00,136.00L 72.00,128.00L 72.00,133.00L 64.00,133.00L 64.00,139.00L 72.00,139.00L 72.00,144.00 zM 104.00,144.00L 112.00,136.00L 107.00,136.00L 107.00,128.00L 101.00,128.00L 101.00,136.00L 96.00,136.00 zM 128.00,136.00L 136.00,144.00L 136.00,139.00L 144.00,139.00L 144.00,133.00L 136.00,133.00L 136.00,128.00 zM 171.00,131.00L 160.00,131.00L 160.00,133.00L 171.00,133.00L 171.00,136.00L 175.00,132.00L 171.00,128.00 zM 175.00,128.00L 175.00,132.00L 175.00,136.00L 176.00,136.00L 176.00,128.00 zM 165.00,136.00L 161.00,140.00L 165.00,144.00L 165.00,141.00L 176.00,141.00L 176.00,139.00L 165.00,139.00 zM 160.00,136.00L 160.00,144.00L 161.00,144.00L 161.00,140.00L 161.00,136.00 zM 192.00,128.00l0.00,16.00 l 16.00,0.00 L 208.00,128.00 L 192.00,128.00 z M 207.00,143.00L 193.00,143.00 L 193.00,129.00 l 14.00,0.00 L 207.00,143.00 z M 204.00,131.50L 199.00,136.50l-3.00-3.00l-2.00,2.00l 5.00,5.00l 7.00-7.00L 204.00,131.50zM 224.00,128.00l0.00,16.00 l 16.00,0.00 L 240.00,128.00 L 224.00,128.00 z M 239.00,143.00L 225.00,143.00 L 225.00,129.00 l 14.00,0.00 L 239.00,143.00 zM 264.00,128.00C 259.582,128.00, 256.00,131.582, 256.00,136.00s 3.582,8.00, 8.00,8.00s 8.00-3.582, 8.00-8.00S 268.418,128.00, 264.00,128.00z M 264.00,142.00 c-3.314,0.00-6.00-2.686-6.00-6.00c0.00-3.314, 2.686-6.00, 6.00-6.00c 3.314,0.00, 6.00,2.686, 6.00,6.00C 270.00,139.314, 267.314,142.00, 264.00,142.00zM 261.00,136.00A3.00,3.00 12600.00 1 0 267.00,136A3.00,3.00 12600.00 1 0 261.00,136zM 296.00,128.00C 291.582,128.00, 288.00,131.582, 288.00,136.00s 3.582,8.00, 8.00,8.00s 8.00-3.582, 8.00-8.00S 300.418,128.00, 296.00,128.00z M 296.00,142.00 c-3.314,0.00-6.00-2.686-6.00-6.00c0.00-3.314, 2.686-6.00, 6.00-6.00c 3.314,0.00, 6.00,2.686, 6.00,6.00C 302.00,139.314, 299.314,142.00, 296.00,142.00zM 333.918,139.081c-0.713-0.712-1.621-1.079-2.468-1.079l-0.455,0.00 l-0.999-1.00l 3.994-4.001 c 0.999-1.00, 0.999-3.00,0.00-4.001L 328.00,135.001L 322.009,129.00c-0.999,1.00-0.999,3.00,0.00,4.001l 3.994,4.001 l-0.999,1.00l-0.455,0.00 c-0.847,0.00-1.755,0.367-2.468,1.079c-1.275,1.273-1.448,3.164-0.385,4.224 C 322.165,143.772, 322.795,144.00, 323.462,144.00c 0.847,0.00, 1.755-0.367, 2.468-1.079c 0.837-0.835, 1.199-1.938, 1.048-2.896l 1.022-1.023 l 1.022,1.023c-0.151,0.959, 0.211,2.061, 1.048,2.896C 330.783,143.633, 331.691,144.00, 332.538,144.00 c 0.667,0.00, 1.297-0.228, 1.766-0.695C 335.366,142.244, 335.194,140.353, 333.918,139.081z M 325.516,141.212 c-0.12,0.279-0.297,0.537-0.525,0.764c-0.229,0.228-0.487,0.405-0.768,0.525c-0.252,0.108-0.515,0.165-0.76,0.165 c-0.237,0.00-0.572-0.053-0.826-0.306c-0.252-0.252-0.305-0.583-0.305-0.817c0.00-0.243, 0.057-0.503, 0.164-0.753 c 0.12-0.279, 0.297-0.537, 0.525-0.764c 0.229-0.228, 0.487-0.405, 0.768-0.525c 0.252-0.108, 0.515-0.165, 0.76-0.165 c 0.237,0.00, 0.572,0.053, 0.826,0.306c 0.252,0.252, 0.305,0.583, 0.305,0.817C 325.681,140.701, 325.624,140.962, 325.516,141.212z M 328.00,138.416c-0.78,0.00-1.412-0.633-1.412-1.414c0.00-0.781, 0.632-1.414, 1.412-1.414s 1.412,0.633, 1.412,1.414 C 329.412,137.782, 328.78,138.416, 328.00,138.416z M 333.364,142.36c-0.254,0.253-0.589,0.306-0.826,0.306 c-0.245,0.00-0.508-0.057-0.76-0.165c-0.281-0.12-0.539-0.297-0.768-0.525c-0.228-0.228-0.405-0.485-0.525-0.764 c-0.108-0.25-0.164-0.51-0.164-0.753c0.00-0.234, 0.053-0.565, 0.305-0.817c 0.254-0.253, 0.589-0.306, 0.826-0.306 c 0.245,0.00, 0.508,0.057, 0.76,0.165c 0.281,0.12, 0.539,0.297, 0.768,0.525c 0.228,0.228, 0.405,0.485, 0.525,0.764 c 0.108,0.25, 0.164,0.51, 0.164,0.753C 333.669,141.777, 333.616,142.108, 333.364,142.36zM 366.00,140.00 L 368.00,140.00 L 365.50,143.00 L 363.00,140.00 L 365.00,140.00 L 365.00,132.00 L 363.00,132.00 L 365.50,129.00 L 368.00,132.00 L 366.00,132.00 ZM 362.00,129.00 L 362.00,133.00 L 361.00,131.00 L 358.00,131.00 L 358.00,142.00 L 360.00,142.00 L 360.00,143.00 L 354.00,143.00 L 354.00,142.00 L 356.00,142.00 L 356.00,131.00 L 353.00,131.00 L 352.00,133.00 L 352.00,129.00 ZM 388.00,142.00 L 388.00,144.00 L 385.00,141.50 L 388.00,139.00 L 388.00,141.00 L 396.00,141.00 L 396.00,139.00 L 399.00,141.50 L 396.00,144.00 L 396.00,142.00 ZM 397.00,129.00 L 397.00,133.00 L 396.00,131.00 L 393.00,131.00 L 393.00,138.00 L 395.00,138.00 L 395.00,139.00 L 389.00,139.00 L 389.00,138.00 L 391.00,138.00 L 391.00,131.00 L 388.00,131.00 L 387.00,133.00 L 387.00,129.00 ZM 427.061,135.573C 427.647,134.877, 428.00,133.979, 428.00,133.00c0.00-2.206-1.794-4.00-4.00-4.00l-2.00,0.00 l-2.00,0.00 L 419.00,129.00 l0.00,14.00 l 1.00,0.00 l 2.00,0.00 l 3.00,0.00 c 2.206,0.00, 4.00-1.794, 4.00-4.00C 429.00,137.548, 428.222,136.274, 427.061,135.573z M 422.00,131.00l 1.586,0.00 c 0.875,0.00, 1.586,0.897, 1.586,2.00 s-0.711,2.00-1.586,2.00L 422.00,135.00 L 422.00,131.00 z M 424.484,141.00L 422.00,141.00 L 422.00,137.00 l 2.484,0.00 c 0.913,0.00, 1.656,0.897, 1.656,2.00S 425.398,141.00, 424.484,141.00zM 459.00,129.00 L 461.00,129.00 L 461.00,135.50 C 461.00,137.985 458.761,140.00 456.00,140.00 C 453.239,140.00 451.00,137.985 451.00,135.50 L 451.00,129.00 L 453.00,129.00 L 453.00,135.50 C 453.00,136.128 453.285,136.73 453.802,137.195 C 454.379,137.714 455.159,138.00 456.00,138.00 C 456.841,138.00 457.621,137.714 458.198,137.195 C 458.715,136.73 459.00,136.128 459.00,135.50 L 459.00,129.00 ZM 451.00,141.00L 461.00,141.00L 461.00,143.00L 451.00,143.00zM 494.00,129.00 L 494.00,130.00 L 492.00,130.00 L 487.00,142.00 L 489.00,142.00 L 489.00,143.00 L 482.00,143.00 L 482.00,142.00 L 484.00,142.00 L 489.00,130.00 L 487.00,130.00 L 487.00,129.00 ZM0.00,161.00L 16.00,161.00L 16.00,163.00L0.00,163.00zM0.00,164.00L 10.00,164.00L 10.00,166.00L0.00,166.00zM0.00,170.00L 10.00,170.00L 10.00,172.00L0.00,172.00zM0.00,167.00L 16.00,167.00L 16.00,169.00L0.00,169.00zM0.00,173.00L 16.00,173.00L 16.00,175.00L0.00,175.00zM 32.00,161.00L 48.00,161.00L 48.00,163.00L 32.00,163.00zM 35.00,164.00L 45.00,164.00L 45.00,166.00L 35.00,166.00zM 35.00,170.00L 45.00,170.00L 45.00,172.00L 35.00,172.00zM 32.00,167.00L 48.00,167.00L 48.00,169.00L 32.00,169.00zM 32.00,173.00L 48.00,173.00L 48.00,175.00L 32.00,175.00zM 64.00,161.00L 80.00,161.00L 80.00,163.00L 64.00,163.00zM 70.00,164.00L 80.00,164.00L 80.00,166.00L 70.00,166.00zM 70.00,170.00L 80.00,170.00L 80.00,172.00L 70.00,172.00zM 64.00,167.00L 80.00,167.00L 80.00,169.00L 64.00,169.00zM 64.00,173.00L 80.00,173.00L 80.00,175.00L 64.00,175.00zM 96.00,161.00L 112.00,161.00L 112.00,163.00L 96.00,163.00zM 96.00,164.00L 112.00,164.00L 112.00,166.00L 96.00,166.00zM 96.00,167.00L 112.00,167.00L 112.00,169.00L 96.00,169.00zM 96.00,170.00L 112.00,170.00L 112.00,172.00L 96.00,172.00zM 96.00,173.00L 112.00,173.00L 112.00,175.00L 96.00,175.00zM 131.00,161.00l0.00,12.00 l 12.00,0.00 L 143.00,161.00 L 131.00,161.00 z M 142.00,172.00L 132.00,172.00 L 132.00,162.00 l 10.00,0.00 L 142.00,172.00 zM 130.00,174.00L 130.00,164.00L 129.00,163.00L 129.00,175.00L 141.00,175.00L 140.00,174.00 zM 134.707,170.707L 137.707,167.707L 140.00,170.00L 140.00,164.00L 134.00,164.00L 136.293,166.293L 133.293,169.293 zM 173.50,171.00c-0.706,0.00-1.343,0.293-1.797,0.763L 164.968,168.396C 164.989,168.267, 165.00,168.135, 165.00,168.00 s-0.011-0.267-0.032-0.396l 6.734-3.367C 172.158,164.707, 172.794,165.00, 173.50,165.00c 1.381,0.00, 2.50-1.119, 2.50-2.50S 174.881,160.00, 173.50,160.00 s-2.50,1.119-2.50,2.50c0.00,0.135, 0.011,0.267, 0.032,0.396L 164.297,166.263C 163.842,165.793, 163.206,165.50, 162.50,165.50c-1.381,0.00-2.50,1.119-2.50,2.50 c0.00,1.381, 1.119,2.50, 2.50,2.50c 0.706,0.00, 1.343-0.293, 1.797-0.763l 6.734,3.367C 171.011,173.233, 171.00,173.365, 171.00,173.50 c0.00,1.381, 1.119,2.50, 2.50,2.50s 2.50-1.119, 2.50-2.50C 176.00,172.119, 174.881,171.00, 173.50,171.00zM 192.00,168.50A3.50,3.50 1080.00 1 0 199.00,168.5A3.50,3.50 1080.00 1 0 192.00,168.5zM 201.00,168.50A3.50,3.50 1080.00 1 0 208.00,168.5A3.50,3.50 1080.00 1 0 201.00,168.5zM 236.50,166.50 C 235.397,166.50 234.50,167.397 234.50,168.50 C 234.50,169.603 235.397,170.50 236.50,170.50 C 237.603,170.50 238.50,169.603 238.50,168.50 C 238.50,167.397 237.603,166.50 236.50,166.50 Z M 236.50,165.00 L 236.50,165.00 C 238.433,165.00 240.00,166.567 240.00,168.50 C 240.00,170.433 238.433,172.00 236.50,172.00 C 234.567,172.00 233.00,170.433 233.00,168.50 C 233.00,166.567 234.567,165.00 236.50,165.00 ZM 224.00,168.50A3.50,3.50 1080.00 1 0 231.00,168.5A3.50,3.50 1080.00 1 0 224.00,168.5zM 256.00,168.694 C 256.00,169.419 256.068,170.075 256.203,170.662 C 256.339,171.248 256.527,171.758 256.767,172.191 C 257.007,172.624 257.312,173.005 257.682,173.334 C 258.053,173.662 258.454,173.931 258.887,174.139 C 259.32,174.348 259.814,174.517 260.37,174.648 C 260.925,174.778 261.492,174.87 262.071,174.922 C 262.65,174.974 263.287,175.00 263.98,175.00 C 264.679,175.00 265.318,174.974 265.897,174.922 C 266.476,174.87 267.045,174.778 267.603,174.648 C 268.161,174.518 268.658,174.348 269.093,174.139 C 269.529,173.931 269.933,173.662 270.306,173.334 C 270.679,173.005 270.987,172.624 271.229,172.191 C 271.472,171.758 271.661,171.248 271.797,170.662 C 271.932,170.075 272.00,169.419 272.00,168.694 C 272.00,167.40 271.567,166.282 270.701,165.337 C 270.748,165.212 270.791,165.07 270.83,164.911 C 270.87,164.752 270.906,164.525 270.94,164.23 C 270.974,163.936 270.961,163.595 270.901,163.209 C 270.841,162.823 270.73,162.429 270.568,162.028 L 270.451,162.004 C 270.367,161.989 270.23,161.993 270.04,162.016 C 269.85,162.04 269.628,162.087 269.375,162.157 C 269.122,162.227 268.796,162.363 268.397,162.564 C 267.998,162.765 267.577,163.016 267.133,163.319 C 266.372,163.11 265.326,163.006 263.996,163.006 C 262.671,163.006 261.628,163.11 260.867,163.319 C 260.423,163.016 259.999,162.765 259.595,162.564 C 259.191,162.363 258.869,162.227 258.629,162.157 C 258.389,162.087 258.165,162.041 257.956,162.02 C 257.747,161.999 257.616,161.993 257.561,162.00 C 257.506,162.008 257.463,162.017 257.432,162.028 C 257.27,162.429 257.159,162.823 257.099,163.209 C 257.039,163.595 257.026,163.936 257.06,164.23 C 257.094,164.525 257.131,164.752 257.17,164.911 C 257.209,165.07 257.252,165.212 257.299,165.337 C 256.433,166.282 256.00,167.40 256.00,168.694 Z M 257.964,170.658 C 257.964,169.907 258.305,169.218 258.989,168.592 C 259.192,168.404 259.429,168.262 259.701,168.166 C 259.972,168.069 260.278,168.014 260.62,168.001 C 260.962,167.988 261.289,167.991 261.602,168.009 C 261.915,168.028 262.301,168.052 262.76,168.084 C 263.219,168.115 263.615,168.131 263.949,168.131 C 264.283,168.131 264.679,168.115 265.138,168.084 C 265.597,168.052 265.983,168.028 266.296,168.009 C 266.609,167.991 266.937,167.988 267.278,168.001 C 267.62,168.014 267.926,168.069 268.198,168.166 C 268.469,168.262 268.706,168.404 268.91,168.592 C 269.593,169.208 269.934,169.896 269.934,170.658 C 269.934,171.106 269.878,171.504 269.766,171.851 C 269.654,172.198 269.511,172.489 269.336,172.723 C 269.161,172.958 268.919,173.157 268.608,173.322 C 268.298,173.486 267.995,173.613 267.701,173.701 C 267.406,173.79 267.028,173.859 266.566,173.909 C 266.105,173.958 265.693,173.988 265.33,173.999 C 264.967,174.009 264.507,174.014 263.949,174.014 C 263.391,174.014 262.931,174.009 262.568,173.999 C 262.206,173.988 261.794,173.958 261.332,173.909 C 260.87,173.859 260.492,173.79 260.198,173.701 C 259.903,173.613 259.60,173.486 259.29,173.322 C 258.98,173.158 258.737,172.958 258.562,172.723 C 258.388,172.489 258.244,172.198 258.132,171.851 C 258.02,171.504 257.964,171.106 257.964,170.658 ZM 266.00,170.50A1.00,1.50 2520.00 1 0 268.00,170.5A1.00,1.50 2520.00 1 0 266.00,170.5zM 260.00,170.50A1.00,1.50 2520.00 1 0 262.00,170.5A1.00,1.50 2520.00 1 0 260.00,170.5zM 296.00,172.998c-0.299,0.00-0.599-0.155-0.908-0.465c-0.122-0.122-0.122-0.32,0.00-0.442c 0.122-0.122, 0.32-0.122, 0.442,0.00 C 295.724,172.282, 295.877,172.375, 296.00,172.375c 0.123,0.00, 0.276-0.093, 0.467-0.283c 0.122-0.122, 0.32-0.122, 0.442,0.00 c 0.122,0.122, 0.122,0.32,0.00,0.442C 296.599,172.843, 296.299,172.998, 296.00,172.998zM 288.00,168.211 C 288.00,168.99 288.067,169.697 288.20,170.331 C 288.333,170.965 288.521,171.514 288.762,171.98 C 289.004,172.445 289.31,172.853 289.679,173.204 C 290.049,173.554 290.45,173.843 290.883,174.07 C 291.317,174.297 291.812,174.481 292.371,174.621 C 292.929,174.762 293.497,174.86 294.075,174.916 C 294.653,174.972 295.289,175.00 295.983,175.00 C 296.678,175.00 297.315,174.972 297.896,174.916 C 298.476,174.86 299.046,174.762 299.604,174.621 C 300.162,174.481 300.66,174.298 301.096,174.07 C 301.532,173.843 301.936,173.554 302.308,173.204 C 302.681,172.853 302.987,172.445 303.229,171.98 C 303.471,171.514 303.66,170.965 303.796,170.331 C 303.932,169.697 304.00,168.99 304.00,168.211 C 304.00,166.814 303.567,165.611 302.70,164.602 C 302.75,164.467 302.793,164.313 302.829,164.139 C 302.865,163.965 302.90,163.72 302.933,163.403 C 302.967,163.086 302.954,162.72 302.896,162.305 C 302.837,161.89 302.728,161.467 302.567,161.035 L 302.442,161.009 C 302.358,160.993 302.222,160.998 302.033,161.026 C 301.844,161.054 301.624,161.105 301.371,161.178 C 301.118,161.251 300.792,161.395 300.392,161.611 C 299.992,161.827 299.569,162.10 299.125,162.431 C 298.369,162.201 297.328,161.961 296.00,161.961 C 294.672,161.961 293.628,162.201 292.867,162.431 C 292.422,162.10 291.999,161.828 291.596,161.615 C 291.193,161.402 290.871,161.256 290.629,161.178 C 290.388,161.099 290.164,161.049 289.958,161.026 C 289.753,161.004 289.621,160.997 289.563,161.005 C 289.504,161.014 289.461,161.023 289.433,161.035 C 289.272,161.467 289.161,161.89 289.10,162.305 C 289.039,162.72 289.025,163.085 289.058,163.399 C 289.092,163.713 289.128,163.96 289.167,164.139 C 289.206,164.319 289.25,164.473 289.30,164.602 C 288.433,165.606 288.00,166.809 288.00,168.211 Z M 290.133,169.991 C 290.133,169.084 290.467,168.262 291.133,167.524 C 291.333,167.299 291.565,167.129 291.829,167.013 C 292.093,166.897 292.393,166.832 292.729,166.816 C 293.065,166.80 293.386,166.804 293.692,166.825 C 293.997,166.847 294.375,166.877 294.825,166.915 C 295.275,166.952 295.664,166.971 295.992,166.971 C 296.319,166.971 296.708,166.952 297.158,166.915 C 297.608,166.877 297.986,166.847 298.292,166.825 C 298.597,166.804 298.918,166.80 299.254,166.816 C 299.59,166.832 299.892,166.897 300.158,167.013 C 300.425,167.129 300.658,167.299 300.858,167.524 C 301.525,168.262 301.858,169.084 301.858,169.991 C 301.858,170.522 301.803,170.996 301.692,171.412 C 301.581,171.827 301.44,172.176 301.271,172.457 C 301.101,172.739 300.864,172.976 300.558,173.17 C 300.253,173.364 299.957,173.514 299.671,173.62 C 299.385,173.726 299.015,173.809 298.563,173.869 C 298.11,173.928 297.704,173.964 297.346,173.976 C 296.988,173.989 296.536,173.995 295.992,173.995 C 295.447,173.995 294.997,173.989 294.642,173.976 C 294.286,173.964 293.882,173.928 293.429,173.869 C 292.976,173.809 292.607,173.726 292.321,173.62 C 292.035,173.514 291.739,173.364 291.433,173.17 C 291.128,172.976 290.89,172.739 290.721,172.457 C 290.551,172.176 290.411,171.827 290.30,171.412 C 290.189,170.996 290.133,170.522 290.133,169.991 ZM 292.00,169.50A1.00,1.50 2520.00 1 0 294.00,169.5A1.00,1.50 2520.00 1 0 292.00,169.5zM 298.00,169.50A1.00,1.50 2520.00 1 0 300.00,169.5A1.00,1.50 2520.00 1 0 298.00,169.5zM 328.00,160.00C 323.582,160.00, 320.00,163.582, 320.00,168.00s 3.582,8.00, 8.00,8.00s 8.00-3.582, 8.00-8.00S 332.418,160.00, 328.00,160.00z M 332.751,172.751 c-0.617,0.617-1.336,1.102-2.136,1.44c-0.203,0.086-0.41,0.161-0.619,0.226L 329.996,173.219 c0.00-0.63-0.216-1.094-0.648-1.391 c 0.271-0.026, 0.52-0.063, 0.746-0.109s 0.466-0.115, 0.719-0.203s 0.479-0.194, 0.68-0.316s 0.393-0.281, 0.578-0.477s 0.34-0.417, 0.465-0.664 s 0.224-0.544, 0.297-0.891s 0.109-0.728, 0.109-1.145c0.00-0.807-0.263-1.495-0.789-2.063c 0.24-0.625, 0.214-1.305-0.078-2.039l-0.195-0.023 c-0.135-0.016-0.379,0.042-0.73,0.172s-0.746,0.344-1.184,0.641c-0.62-0.172-1.263-0.258-1.93-0.258c-0.672,0.00-1.313,0.086-1.922,0.258 c-0.276-0.188-0.538-0.342-0.785-0.465c-0.247-0.122-0.445-0.206-0.594-0.25s-0.286-0.072-0.414-0.082s-0.21-0.013-0.246-0.008 s-0.063,0.01-0.078,0.016c-0.292,0.74-0.318,1.419-0.078,2.039c-0.526,0.568-0.789,1.255-0.789,2.063c0.00,0.417, 0.036,0.798, 0.109,1.145 s 0.172,0.643, 0.297,0.891s 0.28,0.469, 0.465,0.664s 0.378,0.354, 0.578,0.477s 0.427,0.228, 0.68,0.316s 0.492,0.156, 0.719,0.203 s 0.475,0.083, 0.746,0.109c-0.427,0.292-0.641,0.755-0.641,1.391l0.00,1.222 c-0.236-0.07-0.468-0.153-0.697-0.25 c-0.80-0.338-1.519-0.823-2.136-1.44c-0.617-0.617-1.102-1.336-1.44-2.136C 321.459,169.787, 321.281,168.908, 321.281,168.00 s 0.177-1.787, 0.527-2.615c 0.338-0.80, 0.823-1.519, 1.44-2.136s 1.336-1.102, 2.136-1.44 C 326.213,161.459, 327.092,161.281, 328.00,161.281s 1.787,0.177, 2.615,0.527c 0.80,0.338, 1.519,0.823, 2.136,1.44 c 0.617,0.617, 1.102,1.336, 1.44,2.136C 334.541,166.213, 334.719,167.092, 334.719,168.00s-0.177,1.787-0.527,2.615 C 333.853,171.415, 333.368,172.133, 332.751,172.751zM 355.676,163.886c-0.794,0.00-1.476,0.263-2.048,0.788c-0.595,0.56-0.893,1.26-0.893,2.101 c0.00,0.56, 0.162,1.085, 0.489,1.575c 0.292,0.455, 0.597,0.747, 0.997,0.875l0.00,0.035 c-0.40,0.163-0.578,0.572-0.578,1.225 c0.00,0.502, 0.178,0.875, 0.578,1.12l0.00,0.035 c-1.104,0.362-1.609,1.033-1.609,2.013c0.00,0.852, 0.371,1.476, 1.095,1.873 C 354.278,175.842, 355.012,176.00, 355.899,176.00c 2.159,0.00, 3.241-0.904, 3.241-2.713c0.00-1.132-0.833-1.826-2.502-2.083 c-0.385-0.058-0.676-0.198-0.875-0.42c-0.152-0.152-0.227-0.303-0.227-0.455c0.00-0.432, 0.234-0.683, 0.70-0.753 c 0.712-0.105, 1.293-0.435, 1.742-0.989c 0.449-0.554, 0.674-1.205, 0.674-1.952c0.00-0.233-0.071-0.484-0.164-0.753 c 0.303-0.07, 0.516-0.134, 0.676-0.193L 359.165,163.886 c-0.704,0.28-1.359,0.42-1.919,0.42 C 356.755,164.026, 356.248,163.886, 355.676,163.886z M 355.869,172.621c 0.98,0.00, 1.47,0.298, 1.47,0.893 c0.00,0.63-0.449,0.945-1.348,0.945c-1.027,0.00-1.54-0.303-1.54-0.91C 354.451,172.931, 354.923,172.621, 355.869,172.621z M 355.746,168.00c-0.735,0.00-1.103-0.403-1.103-1.208c0.00-0.863, 0.368-1.295, 1.103-1.295c 0.35,0.00, 0.624,0.134, 0.823,0.403 c 0.163,0.245, 0.245,0.537, 0.245,0.875C 356.814,167.591, 356.458,168.00, 355.746,168.00zM 361.069,160.00c-0.338,0.00-0.627,0.128-0.866,0.385c-0.239,0.257-0.359,0.566-0.359,0.928 c0.00,0.35, 0.12,0.653, 0.359,0.91c 0.239,0.257, 0.528,0.385, 0.866,0.385c 0.327,0.00, 0.61-0.128, 0.849-0.385 c 0.239-0.257, 0.359-0.56, 0.359-0.91c0.00-0.362-0.119-0.671-0.359-0.928C 361.678,160.128, 361.395,160.00, 361.069,160.00zM 362.049,164.00l-1.978,0.00 c 0.023,0.224-0.01,0.563-0.01,1.112l0.00,5.444 c0.00,0.56, 0.033,1.012, 0.01,1.188l 1.978,0.00 c-0.023-0.256-0.084-0.698-0.084-1.293L 361.965,165.077 C 361.965,164.563, 362.025,164.224, 362.049,164.00zM 366.412,170.066c-0.514,0.00-0.767-0.391-0.767-1.173l0.00-3.229 l 0.779,0.00 c 0.14,0.00, 0.266-0.008, 0.424,0.004 c 0.158,0.012, 0.221,0.004, 0.301,0.004l0.00-1.672 l-1.504,0.00 l0.00-0.744 c0.00-0.28, 0.044-0.536, 0.079-0.696l-2.031,0.00 c 0.035,0.16, 0.032,0.404, 0.032,0.731L 363.725,164.00 l-0.88,0.00 l0.00,1.672 c 0.24-0.035, 0.455-0.052, 0.606-0.052l 0.274,0.017l0.00,0.009 l0.00,0.00l0.00,3.159 c0.00,0.98, 0.124,1.698, 0.369,2.153c 0.327,0.607, 0.90,0.91, 1.752,0.91c 0.607,0.00, 1.142-0.117, 1.542-0.35l0.00-1.75 C 367.069,169.966, 366.773,170.066, 366.412,170.066zM 388.117,171.865c0.00,0.423, 0.358,0.634, 1.073,0.634c 0.626,0.00, 0.939-0.219, 0.939-0.658 c0.00-0.415-0.341-0.622-1.024-0.622C 388.446,171.219, 388.117,171.434, 388.117,171.865zM 397.334,160.00L 386.667,160.00 C 385.20,160.00, 384.00,161.20, 384.00,162.667l0.00,10.666 C 384.00,174.801, 385.20,176.00, 386.667,176.00l 10.667,0.00 C 398.80,176.00, 400.00,174.801, 400.00,173.333L 400.00,162.667 C 400.00,161.20, 398.80,160.00, 397.334,160.00z M 391.433,166.39 c-0.114,0.041-0.276,0.085-0.488,0.134c 0.065,0.187, 0.098,0.362, 0.098,0.524c0.00,0.52-0.157,0.973-0.469,1.36 c-0.313,0.386-0.717,0.616-1.213,0.689c-0.325,0.049-0.488,0.224-0.488,0.524c0.00,0.106, 0.053,0.211, 0.159,0.317 c 0.138,0.154, 0.341,0.252, 0.61,0.293c 1.162,0.179, 1.744,0.662, 1.744,1.451c0.00,1.26-0.752,1.89-2.256,1.89 c-0.618,0.00-1.126-0.11-1.524-0.329c-0.504-0.276-0.756-0.711-0.756-1.305c0.00-0.683, 0.378-1.15, 1.134-1.402l0.00-0.024 c-0.276-0.171-0.414-0.431-0.414-0.78c0.00-0.455, 0.13-0.74, 0.39-0.853l0.00-0.024 c-0.26-0.089-0.492-0.293-0.695-0.61 c-0.228-0.341-0.341-0.707-0.341-1.097c0.00-0.585, 0.207-1.073, 0.622-1.463c 0.398-0.366, 0.874-0.549, 1.427-0.549 c 0.398,0.00, 0.768,0.097, 1.11,0.293c 0.39,0.00, 0.841-0.098, 1.354-0.293L 391.433,166.39L 391.433,166.39z M 393.409,170.609 l-1.378,0.00 c 0.016-0.163, 0.024-0.439, 0.024-0.829L 392.055,165.988 c0.00-0.382-0.008-0.646-0.024-0.792l 1.378,0.00 c-0.016,0.154-0.024,0.41-0.024,0.768l0.00,3.743 C 393.385,170.122, 393.393,170.422, 393.409,170.609z M 393.317,163.976 c-0.167,0.179-0.364,0.268-0.591,0.268c-0.236,0.00-0.437-0.089-0.604-0.268c-0.167-0.179-0.25-0.39-0.25-0.634 c0.00-0.252, 0.083-0.467, 0.25-0.646c 0.167-0.179, 0.368-0.268, 0.604-0.268c 0.228,0.00, 0.425,0.089, 0.591,0.268 c 0.167,0.179, 0.25,0.394, 0.25,0.646C 393.567,163.586, 393.484,163.797, 393.317,163.976z M 397.151,170.451 c-0.301,0.163-0.663,0.244-1.085,0.244c-0.593,0.00-1.004-0.211-1.231-0.634c-0.171-0.317-0.256-0.817-0.256-1.50l0.00-2.183 l 0.012,0.00 l0.00-0.024 l-0.183-0.012c-0.106,0.00-0.244,0.012-0.415,0.037L 393.993,165.196 l 0.597,0.00 l0.00-0.475 c0.00-0.228-0.012-0.411-0.037-0.549l 1.414,0.00 c-0.024,0.154-0.036,0.329-0.036,0.524l0.00,0.50 l 1.061,0.00 l0.00,1.183 c-0.041,0.00-0.116-0.004-0.226-0.012 c-0.11-0.008-0.213-0.012-0.311-0.012l-0.524,0.00 l0.00,2.268 c0.00,0.545, 0.179,0.817, 0.536,0.817c 0.252,0.00, 0.48-0.069, 0.683-0.207 L 397.151,170.451 L 397.151,170.451zM 389.019,166.256c-0.512,0.00-0.768,0.301-0.768,0.902c0.00,0.561, 0.256,0.841, 0.768,0.841 c 0.496,0.00, 0.744-0.284, 0.744-0.854c0.00-0.236-0.057-0.439-0.171-0.61C 389.454,166.35, 389.263,166.256, 389.019,166.256zM 428.367,168.501c-0.02-2.026, 1.652-2.998, 1.727-3.046c-0.94-1.375-2.404-1.564-2.926-1.585 c-1.246-0.126-2.431,0.734-3.064,0.734c-0.631,0.00-1.607-0.715-2.64-0.696c-1.358,0.02-2.61,0.79-3.31,2.006 c-1.411,2.448-0.361,6.076, 1.014,8.061c 0.672,0.972, 1.473,2.064, 2.525,2.025c 1.013-0.04, 1.396-0.656, 2.621-0.656 c 1.225,0.00, 1.569,0.656, 2.641,0.635c 1.09-0.02, 1.781-0.991, 2.448-1.966c 0.772-1.128, 1.089-2.219, 1.108-2.275 C 430.49,171.727, 428.388,170.922, 428.367,168.501zM 426.353,162.555C 426.911,161.878, 427.288,160.938, 427.185,160.00c-0.804,0.033-1.779,0.536-2.356,1.212 c-0.518,0.60-0.971,1.557-0.85,2.476C 424.877,163.757, 425.794,163.231, 426.353,162.555zM 461.50,165.00c-0.55,0.00-1.00,0.45-1.00,1.00l0.00,4.00 c0.00,0.55, 0.45,1.00, 1.00,1.00s 1.00-0.45, 1.00-1.00L 462.50,166.00 C 462.50,165.45, 462.05,165.00, 461.50,165.00zM 449.50,165.00c-0.55,0.00-1.00,0.45-1.00,1.00l0.00,4.00 c0.00,0.55, 0.45,1.00, 1.00,1.00s 1.00-0.45, 1.00-1.00L 450.50,166.00 C 450.50,165.45, 450.05,165.00, 449.50,165.00zM 451.00,171.50c0.00,0.828, 0.672,1.50, 1.50,1.50l 0.50,0.00 l0.00,2.00 c0.00,0.55, 0.45,1.00, 1.00,1.00s 1.00-0.45, 1.00-1.00l0.00-2.00 l 1.00,0.00 l0.00,2.00 c0.00,0.55, 0.45,1.00, 1.00,1.00s 1.00-0.45, 1.00-1.00 l0.00-2.00 l 0.50,0.00 c 0.828,0.00, 1.50-0.672, 1.50-1.50L 460.00,166.00 L 451.00,166.00 L 451.00,171.50 zM 457.353,161.398l 0.633-1.216c 0.032-0.061, 0.008-0.137-0.053-0.169s-0.137-0.008-0.169,0.053l-0.642,1.234 C 456.619,161.107, 456.072,161.00, 455.50,161.00c-0.572,0.00-1.119,0.107-1.622,0.301L 453.236,160.067c-0.032-0.061-0.108-0.085-0.169-0.053 s-0.085,0.108-0.053,0.169l 0.633,1.216c-1.416,0.641-2.441,1.994-2.619,3.602l 8.944,0.00 C 459.794,163.392, 458.769,162.039, 457.353,161.398z M 453.50,164.225c-0.40,0.00-0.725-0.325-0.725-0.725c0.00-0.40, 0.325-0.725, 0.725-0.725 s 0.725,0.325, 0.725,0.725C 454.225,163.90, 453.90,164.225, 453.50,164.225z M 457.50,164.225c-0.40,0.00-0.725-0.325-0.725-0.725 c0.00-0.40, 0.325-0.725, 0.725-0.725s 0.725,0.325, 0.725,0.725C 458.225,163.90, 457.90,164.225, 457.50,164.225zM 486.441,167.999c-0.745-0.383-1.47-0.577-2.154-0.577c-0.093,0.00-0.187,0.003-0.28,0.011 c-0.873,0.072-1.671,0.303-2.184,0.482c-0.136,0.05-0.276,0.103-0.419,0.161L 480.00,172.941 c 0.964-0.357, 1.817-0.53, 2.598-0.53c 1.263,0.00, 2.18,0.472, 2.937,0.958c 0.359-1.217, 1.219-4.158, 1.476-5.036 C 486.825,168.218, 486.635,168.104, 486.441,167.999zM 488.255,169.235l-1.413,4.909c 0.419,0.24, 1.83,1.001, 2.91,1.001c 0.872,0.00, 1.848-0.223, 2.982-0.684 l 1.349-4.718c-0.916,0.296-1.795,0.446-2.617,0.446C 489.967,170.188, 488.918,169.702, 488.255,169.235zM 484.575,165.762c 1.205,0.012, 2.096,0.472, 2.835,0.945l 1.449-4.958c-0.305-0.175-1.106-0.611-1.685-0.759 c-0.381-0.089-0.782-0.135-1.206-0.135c-0.809,0.015-1.694,0.218-2.701,0.622l-1.382,4.853 c 1.013-0.382, 1.885-0.568, 2.689-0.568C 484.574,165.762, 484.575,165.762, 484.575,165.762zM 496.00,163.096c-0.919,0.357-1.816,0.539-2.672,0.539c-1.433,0.00-2.489-0.497-3.173-0.974L 488.718,167.632 c 0.965,0.62, 2.005,0.936, 3.096,0.936c 0.89,0.00, 1.812-0.214, 2.742-0.636l-0.003-0.035l 0.058-0.014L 496.00,163.096zM 0.005,200.00 L 0.00,195.124 L 6.00,194.309 L 6.00,200.00 ZM 7.00,194.164 L 14.998,193.00 L 14.998,200.00 L 7.00,200.00 ZM 15.00,201.00 L 14.998,208.00 L 7.00,206.875 L 7.00,201.00 ZM 6.00,206.747 L 0.005,205.926 L 0.005,201.00 L 6.00,201.00 ZM 32.946,192.00l 1.284,14.40L 39.991,208.00l 5.777-1.602L 47.054,192.00L 32.946,192.00 z M 44.26,196.71l-0.006,0.00 L 37.501,196.71 l 0.161,1.809 L 44.099,198.518 l-0.485,5.422L 40.00,204.943l-0.004,0.001l-0.002,0.00 l-0.002,0.00 l-3.618-1.004l-0.247-2.774l 1.773,0.00 l 0.126,1.41 l 1.967,0.53l 0.004-0.001l 1.968-0.531l 0.204-2.29L 36.047,200.284 L 35.571,194.944l 8.847,0.00 L 44.26,196.71zM 64.946,192.00l 1.284,14.40L 71.991,208.00l 5.777-1.602L 79.054,192.00L 64.946,192.00 z M 76.668,205.482L 72.024,206.769l0.00,0.007 l-0.012-0.004l-0.012,0.004L 72.00,206.769 l-4.644-1.287L 66.258,193.177l 11.508,0.00 L 76.668,205.482zM 74.168,200.284L 73.964,202.574L 71.996,203.105L 71.992,203.107L 70.025,202.577L 69.899,201.167L 68.126,201.167L 68.373,203.94L 71.992,204.944L 71.994,204.944L 71.996,204.944L 72.00,204.943L 75.614,203.94L 76.099,198.518L 69.662,198.518L 69.501,196.71L 76.254,196.71L 76.26,196.71L 76.418,194.944L 67.571,194.944L 68.047,200.284 zM 98.381,192.758L 97.844,195.445L 108.778,195.445L 108.436,197.18L 97.495,197.18L 96.966,199.866L 107.898,199.866L 107.289,202.929L 102.882,204.389L 99.064,202.929L 99.325,201.60L 96.639,201.60L 96.00,204.825L 102.316,207.242L 109.597,204.825L 112.00,192.758 zM 132.036,198.977 L 129.746,195.012 C 131.212,193.176 133.468,192.00 136.00,192.00 C 138.929,192.00 141.489,193.574 142.883,195.922 L 136.356,195.922 C 136.238,195.912 136.12,195.906 136.00,195.906 C 134.096,195.906 132.491,197.213 132.036,198.977 ZM 138.864,197.078 L 143.449,197.078 C 143.805,197.983 144.00,198.969 144.00,200.00 C 144.00,204.388 140.467,207.95 136.091,207.999 L 139.363,202.332 C 139.823,201.67 140.094,200.866 140.094,200.00 C 140.094,198.857 139.622,197.822 138.864,197.078 ZM 133.094,200.00 C 133.094,198.397 134.397,197.094 136.00,197.094 C 137.602,197.094 138.906,198.397 138.906,200.00 C 138.906,201.602 137.602,202.906 136.00,202.906 C 134.397,202.906 133.094,201.602 133.094,200.00 ZM 137.097,203.944 L 134.806,207.911 C 130.954,207.335 128.00,204.013 128.00,200.00 C 128.00,198.575 128.373,197.237 129.026,196.078 L 132.293,201.735 C 132.947,203.127 134.363,204.094 136.00,204.094 C 136.38,204.094 136.747,204.042 137.097,203.944 ZM 175.977,197.221l-0.185,1.189c0.00,0.00-0.265-2.201-0.59-3.024c-0.498-1.261-0.719-1.251-0.72-1.249 c 0.333,0.847, 0.273,1.302, 0.273,1.302s-0.591-1.609-2.152-2.121c-1.729-0.567-2.665-0.412-2.773-0.383 c-0.016,0.00-0.032,0.00-0.047,0.00c 0.013,0.001, 0.025,0.002, 0.038,0.003c-0.001,0.00-0.001,0.001-0.001,0.001 c 0.007,0.009, 1.911,0.333, 2.249,0.797c0.00,0.00-0.809,0.00-1.614,0.232c-0.036,0.01, 2.961,0.374, 3.574,3.37 c0.00,0.00-0.329-0.686-0.735-0.802c 0.267,0.813, 0.199,2.356-0.056,3.123c-0.033,0.099-0.066-0.426-0.568-0.652 c 0.161,1.151-0.01,2.976-0.808,3.479c-0.062,0.039, 0.50-1.802, 0.113-1.09c-2.23,3.419-4.866,1.578-6.051,0.767 c 0.607,0.132, 1.76-0.021, 2.271-0.40c 0.001,0.00, 0.001-0.001, 0.002-0.001c 0.554-0.379, 0.882-0.656, 1.177-0.59 c 0.295,0.066, 0.491-0.23, 0.262-0.493c-0.229-0.263-0.786-0.625-1.539-0.428c-0.531,0.139-1.19,0.727-2.195,0.132 c-0.771-0.457-0.844-0.837-0.851-1.10c 0.019-0.093, 0.043-0.18, 0.071-0.26c 0.089-0.248, 0.358-0.323, 0.508-0.382 c 0.254,0.044, 0.473,0.123, 0.703,0.241c 0.003-0.076, 0.004-0.1780.00-0.293c 0.022-0.044, 0.008-0.176-0.027-0.337 c-0.02-0.161-0.053-0.328-0.105-0.48c 0.00,0.00, 0.00,0.00, 0.00,0.00c 0.001,0.00, 0.002-0.001, 0.002-0.001 c 0.001-0.001, 0.002-0.002, 0.003-0.003c 0.00,0.00, 0.00-0.001, 0.001-0.001c 0.001-0.002, 0.002-0.004, 0.003-0.007 c 0.016-0.072, 0.188-0.211, 0.402-0.361c 0.192-0.134, 0.417-0.277, 0.595-0.387c 0.157-0.098, 0.277-0.17, 0.302-0.189 c 0.01-0.007, 0.021-0.016, 0.034-0.026c 0.002-0.002, 0.005-0.004, 0.007-0.006c 0.001-0.001, 0.003-0.002, 0.004-0.004 c 0.085-0.067, 0.211-0.195, 0.237-0.462c 0.00-0.001, 0.00-0.001, 0.00-0.002c 0.001-0.008, 0.001-0.016, 0.002-0.024 c 0.00-0.006, 0.001-0.011, 0.001-0.017c 0.00-0.004, 0.001-0.009, 0.001-0.013c 0.00-0.011, 0.001-0.021, 0.001-0.032 c0.00-0.001, 0.00-0.001, 0.00-0.002c 0.00-0.0260.00-0.053-0.002-0.081c-0.001-0.016-0.002-0.03-0.005-0.043 c0.00-0.0010.00-0.0010.00-0.002c0.00-0.001-0.001-0.003-0.001-0.004c-0.001-0.002-0.001-0.005-0.002-0.007 c0.00,0.000.00-0.0010.00-0.001c-0.001-0.003-0.002-0.005-0.003-0.007c0.00,0.000.00,0.000.00,0.00 c-0.027-0.064-0.13-0.088-0.554-0.096c0.00,0.00-0.001,0.00-0.001,0.00l0.00,0.00c-0.173-0.003-0.399-0.003-0.695-0.002 c-0.52,0.002-0.807-0.508-0.898-0.705c 0.126-0.695, 0.489-1.19, 1.085-1.525c 0.011-0.006, 0.009-0.012-0.004-0.015 c 0.117-0.071-1.41-0.002-2.112,0.891c-0.623-0.155-1.166-0.144-1.635-0.035c-0.09-0.003-0.202-0.014-0.335-0.041 c-0.311-0.282-0.757-0.803-0.781-1.425c0.00,0.00-0.001,0.001-0.004,0.003c0.00-0.006-0.001-0.012-0.001-0.018 c0.00,0.00-0.949,0.729-0.807,2.717c0.00,0.032-0.001,0.062-0.002,0.092c-0.257,0.348-0.384,0.641-0.394,0.706 C 160.419,197.099, 160.188,197.796, 160.00,198.855c0.00,0.00, 0.131-0.417, 0.395-0.889c-0.194,0.594-0.346,1.518-0.257,2.904 c0.00,0.00, 0.024-0.307, 0.107-0.75c 0.065,0.86, 0.352,1.921, 1.076,3.169c 1.39,2.396, 3.526,3.605, 5.887,3.791 c 0.419,0.035, 0.845,0.035, 1.272,0.003c 0.039-0.003, 0.079-0.006, 0.118-0.009c 0.484-0.034, 0.971-0.107, 1.457-0.224 C 176.699,205.243, 175.977,197.221, 175.977,197.221zM 203.472,201.825l 3.688,0.00 c 0.028-0.256, 0.04-0.517, 0.04-0.784c0.00-1.254-0.336-2.429-0.924-3.442 c 0.608-1.614, 0.586-2.984-0.227-3.803c-0.773-0.77-2.848-0.645-5.194,0.394c-0.173-0.013-0.349-0.02-0.526-0.02 c-3.22,0.00-5.921,2.216-6.667,5.201C 194.672,198.078, 195.734,197.141, 197.154,196.458c-0.129,0.121-0.882,0.87-1.009,0.996 C 192.402,201.196 191.222,206.084, 192.492,207.354c 0.965,0.965, 2.715,0.802, 4.725-0.182 c 0.934,0.476, 1.992,0.744, 3.113,0.744c 3.018,0.00, 5.575-1.942, 6.501-4.648L 203.114,203.269 c-0.511,0.943-1.512,1.586-2.66,1.586c-1.148,0.00-2.148-0.642-2.66-1.586c-0.227-0.426-0.358-0.915-0.358-1.432l0.00-0.011 L 203.472,201.825 z M 197.442,200.013c 0.085-1.517, 1.347-2.728, 2.887-2.728c 1.54,0.00, 2.802,1.21, 2.887,2.728L 197.442,200.013 z M 206.015,194.559 c 0.524,0.529, 0.511,1.503, 0.063,2.719c-0.768-1.17-1.883-2.093-3.20-2.619 C 204.286,194.055, 205.431,193.976, 206.015,194.559z M 193.461,207.113c-0.668-0.669-0.467-2.072, 0.394-3.763 c 0.536,1.504, 1.581,2.767, 2.927,3.581C 195.291,207.608, 194.071,207.723, 193.461,207.113zM 231.969,192.00C 227.599,192.00, 224.458,195.17, 224.458,199.925C 224.458,204.157, 227.513,208.00, 231.97,208.00 c 4.501,0.00, 7.572-3.842, 7.572-8.075C 239.542,195.132, 236.301,192.00, 231.969,192.00z M 234.756,199.79 c-0.001,2.646-0.142,6.414-2.786,6.414l0.00,0.001 c-2.606,0.00-2.71-3.77-2.71-6.411c0.00-3.10, 0.29-6.071, 2.71-6.071 C 234.39,193.722, 234.756,196.731, 234.756,199.79zM 264.00,193.00c-0.376,0.00-0.745,0.028-1.107,0.081c-0.005-0.012-0.01-0.024-0.015-0.036c 0.20-0.156, 0.305-0.372, 0.26-0.587 C 263.08,192.184, 262.788,192.00, 262.412,192.00c-0.081,0.00-0.163,0.009-0.245,0.026c-0.471,0.10-0.784,0.447-0.711,0.79 c 0.044,0.208, 0.223,0.365, 0.471,0.428c-0.001,0.0150.00,0.03, 0.001,0.046C 258.794,194.189, 256.50,197.076, 256.50,200.50 c0.00,4.142, 3.358,7.50, 7.50,7.50c 4.142,0.00, 7.50-3.358, 7.50-7.50C 271.50,196.358, 268.142,193.00, 264.00,193.00z M 261.701,192.764 c-0.042-0.199, 0.195-0.425, 0.518-0.493C 262.284,192.257, 262.349,192.25, 262.412,192.25c 0.251,0.00, 0.448,0.107, 0.481,0.261 c 0.025,0.117-0.048,0.244-0.178,0.342c-0.11-0.078-0.25-0.111-0.392-0.081c-0.141,0.03-0.255,0.117-0.324,0.232 C 261.84,192.966, 261.725,192.878, 261.701,192.764z M 268.022,204.522c-0.687,0.687-1.519,1.176-2.427,1.44l-0.662-1.075 l-0.168,1.249C 264.513,206.17, 264.258,206.188, 264.00,206.188c-1.519,0.00-2.947-0.592-4.022-1.666 c-0.687-0.687-1.176-1.519-1.44-2.427l 1.075-0.662l-1.249-0.168C 258.33,201.013, 258.313,200.758, 258.313,200.50 c0.00-1.519, 0.592-2.947, 1.666-4.022c 0.687-0.687, 1.519-1.176, 2.427-1.44l 0.662,1.075l 0.168-1.249 C 263.487,194.83, 263.742,194.813, 264.00,194.813c 1.519,0.00, 2.947,0.592, 4.022,1.666c 0.687,0.687, 1.176,1.519, 1.44,2.427 l-1.075,0.662l 1.249,0.168C 269.67,199.987, 269.688,200.242, 269.688,200.50C 269.688,202.019, 269.096,203.447, 268.022,204.522zM 267.889,196.611l-3.078,2.339c-0.229-0.12-0.482-0.188-0.741-0.199l-0.798-1.675l-0.048,1.854 c-0.208,0.102-0.392,0.245-0.545,0.421l-0.986-0.349l 0.72,0.758c-0.099,0.211-0.154,0.438-0.163,0.669l-1.674,0.798 l 1.855,0.048c 0.006,0.012, 0.012,0.024, 0.018,0.036l-2.339,3.078l 3.078-2.339c 0.229,0.12, 0.482,0.188, 0.741,0.199l 0.798,1.675 l 0.048-1.854c 0.208-0.102, 0.392-0.245, 0.545-0.421l 0.986,0.349l-0.72-0.758c 0.099-0.211, 0.154-0.438, 0.163-0.669 l 1.674-0.798l-1.855-0.048c-0.006-0.012-0.012-0.024-0.018-0.036L 267.889,196.611z M 264.002,198.946l0.00,0.054 L 264.002,198.946 L 264.002,198.946z M 263.688,199.033c 0.105-0.022, 0.21-0.033, 0.313-0.033c 0.065,0.00, 0.129,0.004, 0.192,0.012l 0.001,0.001 l0.00,0.00c 0.136,0.018, 0.268,0.055, 0.393,0.108l-1.118,0.85l-0.85,1.118c-0.037-0.087-0.067-0.179-0.087-0.276 C 262.361,200.002, 262.878,199.205, 263.688,199.033z M 264.783,201.779L 264.783,201.779L 264.783,201.779 c-0.141,0.087-0.30,0.151-0.471,0.188c-0.105,0.022-0.21,0.033-0.313,0.033c-0.065,0.00-0.129-0.004-0.192-0.012l-0.001,0.00 l 0.00,0.00c-0.136-0.018-0.268-0.055-0.393-0.108l 1.118-0.85l 0.85-1.118c 0.037,0.087, 0.067,0.179, 0.087,0.276 C 265.603,200.827, 265.31,201.457, 264.783,201.779zM 291.50,204.00L 288.50,204.00 c-0.277,0.00-0.50,0.224-0.50,0.50l0.00,3.00 c0.00,0.277, 0.224,0.50, 0.50,0.50l 3.00,0.00 c 0.277,0.00, 0.50-0.224, 0.50-0.50l0.00-3.00 C 292.00,204.223, 291.776,204.00, 291.50,204.00z M 291.00,206.50c0.00,0.277-0.224,0.50-0.50,0.50L 289.50,207.00 c-0.277,0.00-0.50-0.224-0.50-0.50l0.00-1.00 c0.00-0.277, 0.224-0.50, 0.50-0.50l 1.00,0.00 c 0.277,0.00, 0.50,0.224, 0.50,0.50L 291.00,206.50 z M 303.50,205.00L 294.50,205.00 c-0.277,0.00-0.50,0.224-0.50,0.50l0.00,1.00 c0.00,0.277, 0.224,0.50, 0.50,0.50l 9.00,0.00 c 0.277,0.00, 0.50-0.224, 0.50-0.50l0.00-1.00 C 304.00,205.223, 303.777,205.00, 303.50,205.00z M 303.50,199.00L 294.50,199.00 c-0.277,0.00-0.50,0.224-0.50,0.50l0.00,1.00 c0.00,0.277, 0.224,0.50, 0.50,0.50l 9.00,0.00 c 0.277,0.00, 0.50-0.224, 0.50-0.50l0.00-1.00 C 304.00,199.223, 303.777,199.00, 303.50,199.00z M 291.50,192.00L 288.50,192.00 C 288.224,192.00, 288.00,192.224, 288.00,192.50l0.00,3.00 c0.00,0.277, 0.224,0.50, 0.50,0.50l 3.00,0.00 c 0.277,0.00, 0.50-0.724, 0.50-1.00L 292.00,192.50 C 292.00,192.224, 291.776,192.00, 291.50,192.00z M 291.00,194.50c0.00,0.277-0.224,0.50-0.50,0.50L 289.50,195.00 C 289.224,195.00, 289.00,194.776, 289.00,194.50L 289.00,193.50 c0.00-0.277, 0.224-0.50, 0.50-0.50l 1.00,0.00 c 0.277,0.00, 0.50,0.224, 0.50,0.50L 291.00,194.50 z M 291.50,198.00L 288.50,198.00 c-0.277,0.00-0.50,0.224-0.50,0.50l0.00,3.00 c0.00,0.277, 0.224,0.50, 0.50,0.50l 3.00,0.00 c 0.277,0.00, 0.50-0.224, 0.50-0.50l0.00-3.00 C 292.00,198.223, 291.776,198.00, 291.50,198.00z M 291.00,200.50c0.00,0.277-0.224,0.50-0.50,0.50L 289.50,201.00 c-0.277,0.00-0.50-0.224-0.50-0.50l0.00-1.00 c0.00-0.277, 0.224-0.50, 0.50-0.50l 1.00,0.00 c 0.277,0.00, 0.50,0.224, 0.50,0.50L 291.00,200.50 z M 303.50,193.00L 294.50,193.00 c-0.277,0.00-0.50,0.224-0.50,0.50l0.00,1.00 c0.00,0.277, 0.224,0.50, 0.50,0.50l 9.00,0.00 c 0.277,0.00, 0.50-0.224, 0.50-0.50L 304.00,193.50 C 304.00,193.224, 303.777,193.00, 303.50,193.00zM 328.00,192.00C 323.582,192.00, 320.00,195.582, 320.00,200.00s 3.582,8.00, 8.00,8.00s 8.00-3.582, 8.00-8.00S 332.418,192.00, 328.00,192.00z M 326.76,203.691 L 323.079,200.01l 1.414-1.414l 2.267,2.268l 4.809-4.809l 1.414,1.414L 326.76,203.691zM 360.00,192.00C 355.582,192.00, 352.00,195.582, 352.00,200.00s 3.582,8.00, 8.00,8.00s 8.00-3.582, 8.00-8.00S 364.418,192.00, 360.00,192.00z M 363.957,202.543 l-1.414,1.414L 360.00,201.414l-2.543,2.543l-1.414-1.414L 358.586,200.00l-2.543-2.543l 1.414-1.414L 360.00,198.586l 2.543-2.543l 1.414,1.414 L 361.414,200.00L 363.957,202.543zM 392.00,192.00C 387.582,192.00, 384.00,195.582, 384.00,200.00s 3.582,8.00, 8.00,8.00s 8.00-3.582, 8.00-8.00S 396.418,192.00, 392.00,192.00z M 392.00,194.00 c 1.295,0.00, 2.486,0.422, 3.467,1.121L 387.119,203.465C 386.42,202.485, 386.00,201.293, 386.00,200.00C 386.00,196.691, 388.691,194.00, 392.00,194.00z M 392.00,206.00 c-1.295,0.00-2.486-0.422-3.467-1.121L 396.881,196.535C 397.58,197.516, 398.00,198.707, 398.00,200.00C 398.00,203.309, 395.309,206.00, 392.00,206.00zM 424.00,192.00C 419.582,192.00, 416.00,195.582, 416.00,200.00s 3.582,8.00, 8.00,8.00s 8.00-3.582, 8.00-8.00S 428.418,192.00, 424.00,192.00z M 428.00,201.00l-3.00,0.00 l0.00,3.00 l-2.00,0.00 l0.00-3.00 L 420.00,201.00 l0.00-2.00 l 3.00,0.00 L 423.00,196.00 l 2.00,0.00 l0.00,3.00 l 3.00,0.00 L 428.00,201.00 zM 456.00,192.00C 451.582,192.00, 448.00,195.582, 448.00,200.00s 3.582,8.00, 8.00,8.00s 8.00-3.582, 8.00-8.00S 460.418,192.00, 456.00,192.00z M 460.00,201.00L 452.00,201.00 l0.00-2.00 l 8.00,0.00 L 460.00,201.00 zM 489.00,202.00L 489.00,205.00L 491.00,205.00L 488.00,208.00L 485.00,205.00L 487.00,205.00L 487.00,202.00 zM 487.00,198.00L 487.00,195.00L 485.00,195.00L 488.00,192.00L 491.00,195.00L 489.00,195.00L 489.00,198.00 zM 486.00,201.00L 483.00,201.00L 483.00,203.00L 480.00,200.00L 483.00,197.00L 483.00,199.00L 486.00,199.00 zM 490.00,199.00L 493.00,199.00L 493.00,197.00L 496.00,200.00L 493.00,203.00L 493.00,201.00L 490.00,201.00 zM 14.00,234.00L 10.00,234.00L 10.00,238.00L 11.293,236.707L 14.586,240.00L 16.00,238.586L 12.707,235.293 zM 12.707,228.707L 16.00,225.414L 14.586,224.00L 11.293,227.293L 10.00,226.00L 10.00,230.00L 14.00,230.00 zM 1.414,224.00L0.00,225.414L 3.293,228.707L 2.00,230.00L 6.00,230.00L 6.00,226.00L 4.707,227.293 zM 3.293,235.293L0.00,238.586L 1.414,240.00L 4.707,236.707L 6.00,238.00L 6.00,234.00L 2.00,234.00 zM 46.707,237.293L 43.414,234.00L 42.00,235.414L 45.293,238.707L 44.00,240.00L 48.00,240.00L 48.00,236.00 zM 33.293,226.707L 36.586,230.00L 38.00,228.586L 34.707,225.293L 36.00,224.00L 32.00,224.00L 32.00,228.00 zM 45.293,225.293L 42.00,228.586L 43.414,230.00L 46.707,226.707L 48.00,228.00L 48.00,224.00L 44.00,224.00 zM 38.00,235.414L 36.586,234.00L 33.293,237.293L 32.00,236.00L 32.00,240.00L 36.00,240.00L 34.707,238.707 zM 80.00,238.00L 80.00,232.00 l-4.00,0.00 c0.00-2.205, 1.793-4.00, 4.00-4.00L 80.00,226.00 c-3.308,0.00-6.00,2.692-6.00,6.00l0.00,6.00 L 80.00,238.00 zM 70.00,238.00L 70.00,232.00 L 66.00,232.00 c0.00-2.205, 1.793-4.00, 4.00-4.00L 70.00,226.00 C 66.692,226.00, 64.00,228.691, 64.00,232.00l0.00,6.00 L 70.00,238.00 z"></path></svg>